<?xml version="1.0" encoding="utf-8" standalone="no"?>
<!DOCTYPE svg PUBLIC "-//W3C//DTD SVG 1.1//EN"
  "http://www.w3.org/Graphics/SVG/1.1/DTD/svg11.dtd">
<!-- Created with matplotlib (https://matplotlib.org/) -->
<svg height="720pt" version="1.1" viewBox="0 0 1440 720" width="1440pt" xmlns="http://www.w3.org/2000/svg" xmlns:xlink="http://www.w3.org/1999/xlink">
 <metadata>
  <rdf:RDF xmlns:cc="http://creativecommons.org/ns#" xmlns:dc="http://purl.org/dc/elements/1.1/" xmlns:rdf="http://www.w3.org/1999/02/22-rdf-syntax-ns#">
   <cc:Work>
    <dc:type rdf:resource="http://purl.org/dc/dcmitype/StillImage"/>
    <dc:date>2021-12-17T16:35:02.541904</dc:date>
    <dc:format>image/svg+xml</dc:format>
    <dc:creator>
     <cc:Agent>
      <dc:title>Matplotlib v3.3.4, https://matplotlib.org/</dc:title>
     </cc:Agent>
    </dc:creator>
   </cc:Work>
  </rdf:RDF>
 </metadata>
 <defs>
  <style type="text/css">*{stroke-linecap:butt;stroke-linejoin:round;}</style>
 </defs>
 <g id="figure_1">
  <g id="patch_1">
   <path d="M 0 720 
L 1440 720 
L 1440 0 
L 0 0 
z
" style="fill:#ffffff;"/>
  </g>
  <g id="axes_1">
   <g id="patch_2">
    <path d="M 180 630 
L 1296 630 
L 1296 86.4 
L 180 86.4 
z
" style="fill:#ffffff;"/>
   </g>
   <g id="matplotlib.axis_1">
    <g id="xtick_1">
     <g id="line2d_1">
      <defs>
       <path d="M 0 0 
L 0 3.5 
" id="me98c6648a1" style="stroke:#000000;stroke-width:0.8;"/>
      </defs>
      <g>
       <use style="stroke:#000000;stroke-width:0.8;" x="180" xlink:href="#me98c6648a1" y="630"/>
      </g>
     </g>
     <g id="text_1">
      <!-- 500 -->
      <g transform="translate(170.45625 644.598438)scale(0.1 -0.1)">
       <defs>
        <path d="M 10.796875 72.90625 
L 49.515625 72.90625 
L 49.515625 64.59375 
L 19.828125 64.59375 
L 19.828125 46.734375 
Q 21.96875 47.46875 24.109375 47.828125 
Q 26.265625 48.1875 28.421875 48.1875 
Q 40.625 48.1875 47.75 41.5 
Q 54.890625 34.8125 54.890625 23.390625 
Q 54.890625 11.625 47.5625 5.09375 
Q 40.234375 -1.421875 26.90625 -1.421875 
Q 22.3125 -1.421875 17.546875 -0.640625 
Q 12.796875 0.140625 7.71875 1.703125 
L 7.71875 11.625 
Q 12.109375 9.234375 16.796875 8.0625 
Q 21.484375 6.890625 26.703125 6.890625 
Q 35.15625 6.890625 40.078125 11.328125 
Q 45.015625 15.765625 45.015625 23.390625 
Q 45.015625 31 40.078125 35.4375 
Q 35.15625 39.890625 26.703125 39.890625 
Q 22.75 39.890625 18.8125 39.015625 
Q 14.890625 38.140625 10.796875 36.28125 
z
" id="DejaVuSans-53"/>
        <path d="M 31.78125 66.40625 
Q 24.171875 66.40625 20.328125 58.90625 
Q 16.5 51.421875 16.5 36.375 
Q 16.5 21.390625 20.328125 13.890625 
Q 24.171875 6.390625 31.78125 6.390625 
Q 39.453125 6.390625 43.28125 13.890625 
Q 47.125 21.390625 47.125 36.375 
Q 47.125 51.421875 43.28125 58.90625 
Q 39.453125 66.40625 31.78125 66.40625 
z
M 31.78125 74.21875 
Q 44.046875 74.21875 50.515625 64.515625 
Q 56.984375 54.828125 56.984375 36.375 
Q 56.984375 17.96875 50.515625 8.265625 
Q 44.046875 -1.421875 31.78125 -1.421875 
Q 19.53125 -1.421875 13.0625 8.265625 
Q 6.59375 17.96875 6.59375 36.375 
Q 6.59375 54.828125 13.0625 64.515625 
Q 19.53125 74.21875 31.78125 74.21875 
z
" id="DejaVuSans-48"/>
       </defs>
       <use xlink:href="#DejaVuSans-53"/>
       <use x="63.623047" xlink:href="#DejaVuSans-48"/>
       <use x="127.246094" xlink:href="#DejaVuSans-48"/>
      </g>
     </g>
    </g>
    <g id="xtick_2">
     <g id="line2d_2">
      <g>
       <use style="stroke:#000000;stroke-width:0.8;" x="304" xlink:href="#me98c6648a1" y="630"/>
      </g>
     </g>
     <g id="text_2">
      <!-- 1000 -->
      <g transform="translate(291.275 644.598438)scale(0.1 -0.1)">
       <defs>
        <path d="M 12.40625 8.296875 
L 28.515625 8.296875 
L 28.515625 63.921875 
L 10.984375 60.40625 
L 10.984375 69.390625 
L 28.421875 72.90625 
L 38.28125 72.90625 
L 38.28125 8.296875 
L 54.390625 8.296875 
L 54.390625 0 
L 12.40625 0 
z
" id="DejaVuSans-49"/>
       </defs>
       <use xlink:href="#DejaVuSans-49"/>
       <use x="63.623047" xlink:href="#DejaVuSans-48"/>
       <use x="127.246094" xlink:href="#DejaVuSans-48"/>
       <use x="190.869141" xlink:href="#DejaVuSans-48"/>
      </g>
     </g>
    </g>
    <g id="xtick_3">
     <g id="line2d_3">
      <g>
       <use style="stroke:#000000;stroke-width:0.8;" x="428" xlink:href="#me98c6648a1" y="630"/>
      </g>
     </g>
     <g id="text_3">
      <!-- 1500 -->
      <g transform="translate(415.275 644.598438)scale(0.1 -0.1)">
       <use xlink:href="#DejaVuSans-49"/>
       <use x="63.623047" xlink:href="#DejaVuSans-53"/>
       <use x="127.246094" xlink:href="#DejaVuSans-48"/>
       <use x="190.869141" xlink:href="#DejaVuSans-48"/>
      </g>
     </g>
    </g>
    <g id="xtick_4">
     <g id="line2d_4">
      <g>
       <use style="stroke:#000000;stroke-width:0.8;" x="552" xlink:href="#me98c6648a1" y="630"/>
      </g>
     </g>
     <g id="text_4">
      <!-- 2000 -->
      <g transform="translate(539.275 644.598438)scale(0.1 -0.1)">
       <defs>
        <path d="M 19.1875 8.296875 
L 53.609375 8.296875 
L 53.609375 0 
L 7.328125 0 
L 7.328125 8.296875 
Q 12.9375 14.109375 22.625 23.890625 
Q 32.328125 33.6875 34.8125 36.53125 
Q 39.546875 41.84375 41.421875 45.53125 
Q 43.3125 49.21875 43.3125 52.78125 
Q 43.3125 58.59375 39.234375 62.25 
Q 35.15625 65.921875 28.609375 65.921875 
Q 23.96875 65.921875 18.8125 64.3125 
Q 13.671875 62.703125 7.8125 59.421875 
L 7.8125 69.390625 
Q 13.765625 71.78125 18.9375 73 
Q 24.125 74.21875 28.421875 74.21875 
Q 39.75 74.21875 46.484375 68.546875 
Q 53.21875 62.890625 53.21875 53.421875 
Q 53.21875 48.921875 51.53125 44.890625 
Q 49.859375 40.875 45.40625 35.40625 
Q 44.1875 33.984375 37.640625 27.21875 
Q 31.109375 20.453125 19.1875 8.296875 
z
" id="DejaVuSans-50"/>
       </defs>
       <use xlink:href="#DejaVuSans-50"/>
       <use x="63.623047" xlink:href="#DejaVuSans-48"/>
       <use x="127.246094" xlink:href="#DejaVuSans-48"/>
       <use x="190.869141" xlink:href="#DejaVuSans-48"/>
      </g>
     </g>
    </g>
    <g id="xtick_5">
     <g id="line2d_5">
      <g>
       <use style="stroke:#000000;stroke-width:0.8;" x="676" xlink:href="#me98c6648a1" y="630"/>
      </g>
     </g>
     <g id="text_5">
      <!-- 2500 -->
      <g transform="translate(663.275 644.598438)scale(0.1 -0.1)">
       <use xlink:href="#DejaVuSans-50"/>
       <use x="63.623047" xlink:href="#DejaVuSans-53"/>
       <use x="127.246094" xlink:href="#DejaVuSans-48"/>
       <use x="190.869141" xlink:href="#DejaVuSans-48"/>
      </g>
     </g>
    </g>
    <g id="xtick_6">
     <g id="line2d_6">
      <g>
       <use style="stroke:#000000;stroke-width:0.8;" x="800" xlink:href="#me98c6648a1" y="630"/>
      </g>
     </g>
     <g id="text_6">
      <!-- 3000 -->
      <g transform="translate(787.275 644.598438)scale(0.1 -0.1)">
       <defs>
        <path d="M 40.578125 39.3125 
Q 47.65625 37.796875 51.625 33 
Q 55.609375 28.21875 55.609375 21.1875 
Q 55.609375 10.40625 48.1875 4.484375 
Q 40.765625 -1.421875 27.09375 -1.421875 
Q 22.515625 -1.421875 17.65625 -0.515625 
Q 12.796875 0.390625 7.625 2.203125 
L 7.625 11.71875 
Q 11.71875 9.328125 16.59375 8.109375 
Q 21.484375 6.890625 26.8125 6.890625 
Q 36.078125 6.890625 40.9375 10.546875 
Q 45.796875 14.203125 45.796875 21.1875 
Q 45.796875 27.640625 41.28125 31.265625 
Q 36.765625 34.90625 28.71875 34.90625 
L 20.21875 34.90625 
L 20.21875 43.015625 
L 29.109375 43.015625 
Q 36.375 43.015625 40.234375 45.921875 
Q 44.09375 48.828125 44.09375 54.296875 
Q 44.09375 59.90625 40.109375 62.90625 
Q 36.140625 65.921875 28.71875 65.921875 
Q 24.65625 65.921875 20.015625 65.03125 
Q 15.375 64.15625 9.8125 62.3125 
L 9.8125 71.09375 
Q 15.4375 72.65625 20.34375 73.4375 
Q 25.25 74.21875 29.59375 74.21875 
Q 40.828125 74.21875 47.359375 69.109375 
Q 53.90625 64.015625 53.90625 55.328125 
Q 53.90625 49.265625 50.4375 45.09375 
Q 46.96875 40.921875 40.578125 39.3125 
z
" id="DejaVuSans-51"/>
       </defs>
       <use xlink:href="#DejaVuSans-51"/>
       <use x="63.623047" xlink:href="#DejaVuSans-48"/>
       <use x="127.246094" xlink:href="#DejaVuSans-48"/>
       <use x="190.869141" xlink:href="#DejaVuSans-48"/>
      </g>
     </g>
    </g>
    <g id="xtick_7">
     <g id="line2d_7">
      <g>
       <use style="stroke:#000000;stroke-width:0.8;" x="924" xlink:href="#me98c6648a1" y="630"/>
      </g>
     </g>
     <g id="text_7">
      <!-- 3500 -->
      <g transform="translate(911.275 644.598438)scale(0.1 -0.1)">
       <use xlink:href="#DejaVuSans-51"/>
       <use x="63.623047" xlink:href="#DejaVuSans-53"/>
       <use x="127.246094" xlink:href="#DejaVuSans-48"/>
       <use x="190.869141" xlink:href="#DejaVuSans-48"/>
      </g>
     </g>
    </g>
    <g id="xtick_8">
     <g id="line2d_8">
      <g>
       <use style="stroke:#000000;stroke-width:0.8;" x="1048" xlink:href="#me98c6648a1" y="630"/>
      </g>
     </g>
     <g id="text_8">
      <!-- 4000 -->
      <g transform="translate(1035.275 644.598438)scale(0.1 -0.1)">
       <defs>
        <path d="M 37.796875 64.3125 
L 12.890625 25.390625 
L 37.796875 25.390625 
z
M 35.203125 72.90625 
L 47.609375 72.90625 
L 47.609375 25.390625 
L 58.015625 25.390625 
L 58.015625 17.1875 
L 47.609375 17.1875 
L 47.609375 0 
L 37.796875 0 
L 37.796875 17.1875 
L 4.890625 17.1875 
L 4.890625 26.703125 
z
" id="DejaVuSans-52"/>
       </defs>
       <use xlink:href="#DejaVuSans-52"/>
       <use x="63.623047" xlink:href="#DejaVuSans-48"/>
       <use x="127.246094" xlink:href="#DejaVuSans-48"/>
       <use x="190.869141" xlink:href="#DejaVuSans-48"/>
      </g>
     </g>
    </g>
    <g id="xtick_9">
     <g id="line2d_9">
      <g>
       <use style="stroke:#000000;stroke-width:0.8;" x="1172" xlink:href="#me98c6648a1" y="630"/>
      </g>
     </g>
     <g id="text_9">
      <!-- 4500 -->
      <g transform="translate(1159.275 644.598438)scale(0.1 -0.1)">
       <use xlink:href="#DejaVuSans-52"/>
       <use x="63.623047" xlink:href="#DejaVuSans-53"/>
       <use x="127.246094" xlink:href="#DejaVuSans-48"/>
       <use x="190.869141" xlink:href="#DejaVuSans-48"/>
      </g>
     </g>
    </g>
    <g id="xtick_10">
     <g id="line2d_10">
      <g>
       <use style="stroke:#000000;stroke-width:0.8;" x="1296" xlink:href="#me98c6648a1" y="630"/>
      </g>
     </g>
     <g id="text_10">
      <!-- 5000 -->
      <g transform="translate(1283.275 644.598438)scale(0.1 -0.1)">
       <use xlink:href="#DejaVuSans-53"/>
       <use x="63.623047" xlink:href="#DejaVuSans-48"/>
       <use x="127.246094" xlink:href="#DejaVuSans-48"/>
       <use x="190.869141" xlink:href="#DejaVuSans-48"/>
      </g>
     </g>
    </g>
    <g id="text_11">
     <!-- Energy [keV] -->
     <g transform="translate(705.792187 658.276562)scale(0.1 -0.1)">
      <defs>
       <path d="M 9.8125 72.90625 
L 55.90625 72.90625 
L 55.90625 64.59375 
L 19.671875 64.59375 
L 19.671875 43.015625 
L 54.390625 43.015625 
L 54.390625 34.71875 
L 19.671875 34.71875 
L 19.671875 8.296875 
L 56.78125 8.296875 
L 56.78125 0 
L 9.8125 0 
z
" id="DejaVuSans-69"/>
       <path d="M 54.890625 33.015625 
L 54.890625 0 
L 45.90625 0 
L 45.90625 32.71875 
Q 45.90625 40.484375 42.875 44.328125 
Q 39.84375 48.1875 33.796875 48.1875 
Q 26.515625 48.1875 22.3125 43.546875 
Q 18.109375 38.921875 18.109375 30.90625 
L 18.109375 0 
L 9.078125 0 
L 9.078125 54.6875 
L 18.109375 54.6875 
L 18.109375 46.1875 
Q 21.34375 51.125 25.703125 53.5625 
Q 30.078125 56 35.796875 56 
Q 45.21875 56 50.046875 50.171875 
Q 54.890625 44.34375 54.890625 33.015625 
z
" id="DejaVuSans-110"/>
       <path d="M 56.203125 29.59375 
L 56.203125 25.203125 
L 14.890625 25.203125 
Q 15.484375 15.921875 20.484375 11.0625 
Q 25.484375 6.203125 34.421875 6.203125 
Q 39.59375 6.203125 44.453125 7.46875 
Q 49.3125 8.734375 54.109375 11.28125 
L 54.109375 2.78125 
Q 49.265625 0.734375 44.1875 -0.34375 
Q 39.109375 -1.421875 33.890625 -1.421875 
Q 20.796875 -1.421875 13.15625 6.1875 
Q 5.515625 13.8125 5.515625 26.8125 
Q 5.515625 40.234375 12.765625 48.109375 
Q 20.015625 56 32.328125 56 
Q 43.359375 56 49.78125 48.890625 
Q 56.203125 41.796875 56.203125 29.59375 
z
M 47.21875 32.234375 
Q 47.125 39.59375 43.09375 43.984375 
Q 39.0625 48.390625 32.421875 48.390625 
Q 24.90625 48.390625 20.390625 44.140625 
Q 15.875 39.890625 15.1875 32.171875 
z
" id="DejaVuSans-101"/>
       <path d="M 41.109375 46.296875 
Q 39.59375 47.171875 37.8125 47.578125 
Q 36.03125 48 33.890625 48 
Q 26.265625 48 22.1875 43.046875 
Q 18.109375 38.09375 18.109375 28.8125 
L 18.109375 0 
L 9.078125 0 
L 9.078125 54.6875 
L 18.109375 54.6875 
L 18.109375 46.1875 
Q 20.953125 51.171875 25.484375 53.578125 
Q 30.03125 56 36.53125 56 
Q 37.453125 56 38.578125 55.875 
Q 39.703125 55.765625 41.0625 55.515625 
z
" id="DejaVuSans-114"/>
       <path d="M 45.40625 27.984375 
Q 45.40625 37.75 41.375 43.109375 
Q 37.359375 48.484375 30.078125 48.484375 
Q 22.859375 48.484375 18.828125 43.109375 
Q 14.796875 37.75 14.796875 27.984375 
Q 14.796875 18.265625 18.828125 12.890625 
Q 22.859375 7.515625 30.078125 7.515625 
Q 37.359375 7.515625 41.375 12.890625 
Q 45.40625 18.265625 45.40625 27.984375 
z
M 54.390625 6.78125 
Q 54.390625 -7.171875 48.1875 -13.984375 
Q 42 -20.796875 29.203125 -20.796875 
Q 24.46875 -20.796875 20.265625 -20.09375 
Q 16.0625 -19.390625 12.109375 -17.921875 
L 12.109375 -9.1875 
Q 16.0625 -11.328125 19.921875 -12.34375 
Q 23.78125 -13.375 27.78125 -13.375 
Q 36.625 -13.375 41.015625 -8.765625 
Q 45.40625 -4.15625 45.40625 5.171875 
L 45.40625 9.625 
Q 42.625 4.78125 38.28125 2.390625 
Q 33.9375 0 27.875 0 
Q 17.828125 0 11.671875 7.65625 
Q 5.515625 15.328125 5.515625 27.984375 
Q 5.515625 40.671875 11.671875 48.328125 
Q 17.828125 56 27.875 56 
Q 33.9375 56 38.28125 53.609375 
Q 42.625 51.21875 45.40625 46.390625 
L 45.40625 54.6875 
L 54.390625 54.6875 
z
" id="DejaVuSans-103"/>
       <path d="M 32.171875 -5.078125 
Q 28.375 -14.84375 24.75 -17.8125 
Q 21.140625 -20.796875 15.09375 -20.796875 
L 7.90625 -20.796875 
L 7.90625 -13.28125 
L 13.1875 -13.28125 
Q 16.890625 -13.28125 18.9375 -11.515625 
Q 21 -9.765625 23.484375 -3.21875 
L 25.09375 0.875 
L 2.984375 54.6875 
L 12.5 54.6875 
L 29.59375 11.921875 
L 46.6875 54.6875 
L 56.203125 54.6875 
z
" id="DejaVuSans-121"/>
       <path id="DejaVuSans-32"/>
       <path d="M 8.59375 75.984375 
L 29.296875 75.984375 
L 29.296875 69 
L 17.578125 69 
L 17.578125 -6.203125 
L 29.296875 -6.203125 
L 29.296875 -13.1875 
L 8.59375 -13.1875 
z
" id="DejaVuSans-91"/>
       <path d="M 9.078125 75.984375 
L 18.109375 75.984375 
L 18.109375 31.109375 
L 44.921875 54.6875 
L 56.390625 54.6875 
L 27.390625 29.109375 
L 57.625 0 
L 45.90625 0 
L 18.109375 26.703125 
L 18.109375 0 
L 9.078125 0 
z
" id="DejaVuSans-107"/>
       <path d="M 28.609375 0 
L 0.78125 72.90625 
L 11.078125 72.90625 
L 34.1875 11.53125 
L 57.328125 72.90625 
L 67.578125 72.90625 
L 39.796875 0 
z
" id="DejaVuSans-86"/>
       <path d="M 30.421875 75.984375 
L 30.421875 -13.1875 
L 9.71875 -13.1875 
L 9.71875 -6.203125 
L 21.390625 -6.203125 
L 21.390625 69 
L 9.71875 69 
L 9.71875 75.984375 
z
" id="DejaVuSans-93"/>
      </defs>
      <use xlink:href="#DejaVuSans-69"/>
      <use x="63.183594" xlink:href="#DejaVuSans-110"/>
      <use x="126.5625" xlink:href="#DejaVuSans-101"/>
      <use x="188.085938" xlink:href="#DejaVuSans-114"/>
      <use x="227.449219" xlink:href="#DejaVuSans-103"/>
      <use x="290.925781" xlink:href="#DejaVuSans-121"/>
      <use x="350.105469" xlink:href="#DejaVuSans-32"/>
      <use x="381.892578" xlink:href="#DejaVuSans-91"/>
      <use x="420.90625" xlink:href="#DejaVuSans-107"/>
      <use x="475.191406" xlink:href="#DejaVuSans-101"/>
      <use x="536.714844" xlink:href="#DejaVuSans-86"/>
      <use x="605.123047" xlink:href="#DejaVuSans-93"/>
     </g>
    </g>
   </g>
   <g id="matplotlib.axis_2">
    <g id="ytick_1">
     <g id="line2d_11">
      <defs>
       <path d="M 0 0 
L -3.5 0 
" id="ma2c685d0c1" style="stroke:#000000;stroke-width:0.8;"/>
      </defs>
      <g>
       <use style="stroke:#000000;stroke-width:0.8;" x="180" xlink:href="#ma2c685d0c1" y="605.290909"/>
      </g>
     </g>
     <g id="text_12">
      <!-- 0 -->
      <g transform="translate(166.6375 609.090128)scale(0.1 -0.1)">
       <use xlink:href="#DejaVuSans-48"/>
      </g>
     </g>
    </g>
    <g id="ytick_2">
     <g id="line2d_12">
      <g>
       <use style="stroke:#000000;stroke-width:0.8;" x="180" xlink:href="#ma2c685d0c1" y="533.042105"/>
      </g>
     </g>
     <g id="text_13">
      <!-- 25 -->
      <g transform="translate(160.275 536.841324)scale(0.1 -0.1)">
       <use xlink:href="#DejaVuSans-50"/>
       <use x="63.623047" xlink:href="#DejaVuSans-53"/>
      </g>
     </g>
    </g>
    <g id="ytick_3">
     <g id="line2d_13">
      <g>
       <use style="stroke:#000000;stroke-width:0.8;" x="180" xlink:href="#ma2c685d0c1" y="460.793301"/>
      </g>
     </g>
     <g id="text_14">
      <!-- 50 -->
      <g transform="translate(160.275 464.59252)scale(0.1 -0.1)">
       <use xlink:href="#DejaVuSans-53"/>
       <use x="63.623047" xlink:href="#DejaVuSans-48"/>
      </g>
     </g>
    </g>
    <g id="ytick_4">
     <g id="line2d_14">
      <g>
       <use style="stroke:#000000;stroke-width:0.8;" x="180" xlink:href="#ma2c685d0c1" y="388.544498"/>
      </g>
     </g>
     <g id="text_15">
      <!-- 75 -->
      <g transform="translate(160.275 392.343716)scale(0.1 -0.1)">
       <defs>
        <path d="M 8.203125 72.90625 
L 55.078125 72.90625 
L 55.078125 68.703125 
L 28.609375 0 
L 18.3125 0 
L 43.21875 64.59375 
L 8.203125 64.59375 
z
" id="DejaVuSans-55"/>
       </defs>
       <use xlink:href="#DejaVuSans-55"/>
       <use x="63.623047" xlink:href="#DejaVuSans-53"/>
      </g>
     </g>
    </g>
    <g id="ytick_5">
     <g id="line2d_15">
      <g>
       <use style="stroke:#000000;stroke-width:0.8;" x="180" xlink:href="#ma2c685d0c1" y="316.295694"/>
      </g>
     </g>
     <g id="text_16">
      <!-- 100 -->
      <g transform="translate(153.9125 320.094913)scale(0.1 -0.1)">
       <use xlink:href="#DejaVuSans-49"/>
       <use x="63.623047" xlink:href="#DejaVuSans-48"/>
       <use x="127.246094" xlink:href="#DejaVuSans-48"/>
      </g>
     </g>
    </g>
    <g id="ytick_6">
     <g id="line2d_16">
      <g>
       <use style="stroke:#000000;stroke-width:0.8;" x="180" xlink:href="#ma2c685d0c1" y="244.04689"/>
      </g>
     </g>
     <g id="text_17">
      <!-- 125 -->
      <g transform="translate(153.9125 247.846109)scale(0.1 -0.1)">
       <use xlink:href="#DejaVuSans-49"/>
       <use x="63.623047" xlink:href="#DejaVuSans-50"/>
       <use x="127.246094" xlink:href="#DejaVuSans-53"/>
      </g>
     </g>
    </g>
    <g id="ytick_7">
     <g id="line2d_17">
      <g>
       <use style="stroke:#000000;stroke-width:0.8;" x="180" xlink:href="#ma2c685d0c1" y="171.798086"/>
      </g>
     </g>
     <g id="text_18">
      <!-- 150 -->
      <g transform="translate(153.9125 175.597305)scale(0.1 -0.1)">
       <use xlink:href="#DejaVuSans-49"/>
       <use x="63.623047" xlink:href="#DejaVuSans-53"/>
       <use x="127.246094" xlink:href="#DejaVuSans-48"/>
      </g>
     </g>
    </g>
    <g id="ytick_8">
     <g id="line2d_18">
      <g>
       <use style="stroke:#000000;stroke-width:0.8;" x="180" xlink:href="#ma2c685d0c1" y="99.549282"/>
      </g>
     </g>
     <g id="text_19">
      <!-- 175 -->
      <g transform="translate(153.9125 103.348501)scale(0.1 -0.1)">
       <use xlink:href="#DejaVuSans-49"/>
       <use x="63.623047" xlink:href="#DejaVuSans-55"/>
       <use x="127.246094" xlink:href="#DejaVuSans-53"/>
      </g>
     </g>
    </g>
    <g id="text_20">
     <!-- Count -->
     <g transform="translate(147.832812 373.048437)rotate(-90)scale(0.1 -0.1)">
      <defs>
       <path d="M 64.40625 67.28125 
L 64.40625 56.890625 
Q 59.421875 61.53125 53.78125 63.8125 
Q 48.140625 66.109375 41.796875 66.109375 
Q 29.296875 66.109375 22.65625 58.46875 
Q 16.015625 50.828125 16.015625 36.375 
Q 16.015625 21.96875 22.65625 14.328125 
Q 29.296875 6.6875 41.796875 6.6875 
Q 48.140625 6.6875 53.78125 8.984375 
Q 59.421875 11.28125 64.40625 15.921875 
L 64.40625 5.609375 
Q 59.234375 2.09375 53.4375 0.328125 
Q 47.65625 -1.421875 41.21875 -1.421875 
Q 24.65625 -1.421875 15.125 8.703125 
Q 5.609375 18.84375 5.609375 36.375 
Q 5.609375 53.953125 15.125 64.078125 
Q 24.65625 74.21875 41.21875 74.21875 
Q 47.75 74.21875 53.53125 72.484375 
Q 59.328125 70.75 64.40625 67.28125 
z
" id="DejaVuSans-67"/>
       <path d="M 30.609375 48.390625 
Q 23.390625 48.390625 19.1875 42.75 
Q 14.984375 37.109375 14.984375 27.296875 
Q 14.984375 17.484375 19.15625 11.84375 
Q 23.34375 6.203125 30.609375 6.203125 
Q 37.796875 6.203125 41.984375 11.859375 
Q 46.1875 17.53125 46.1875 27.296875 
Q 46.1875 37.015625 41.984375 42.703125 
Q 37.796875 48.390625 30.609375 48.390625 
z
M 30.609375 56 
Q 42.328125 56 49.015625 48.375 
Q 55.71875 40.765625 55.71875 27.296875 
Q 55.71875 13.875 49.015625 6.21875 
Q 42.328125 -1.421875 30.609375 -1.421875 
Q 18.84375 -1.421875 12.171875 6.21875 
Q 5.515625 13.875 5.515625 27.296875 
Q 5.515625 40.765625 12.171875 48.375 
Q 18.84375 56 30.609375 56 
z
" id="DejaVuSans-111"/>
       <path d="M 8.5 21.578125 
L 8.5 54.6875 
L 17.484375 54.6875 
L 17.484375 21.921875 
Q 17.484375 14.15625 20.5 10.265625 
Q 23.53125 6.390625 29.59375 6.390625 
Q 36.859375 6.390625 41.078125 11.03125 
Q 45.3125 15.671875 45.3125 23.6875 
L 45.3125 54.6875 
L 54.296875 54.6875 
L 54.296875 0 
L 45.3125 0 
L 45.3125 8.40625 
Q 42.046875 3.421875 37.71875 1 
Q 33.40625 -1.421875 27.6875 -1.421875 
Q 18.265625 -1.421875 13.375 4.4375 
Q 8.5 10.296875 8.5 21.578125 
z
M 31.109375 56 
z
" id="DejaVuSans-117"/>
       <path d="M 18.3125 70.21875 
L 18.3125 54.6875 
L 36.8125 54.6875 
L 36.8125 47.703125 
L 18.3125 47.703125 
L 18.3125 18.015625 
Q 18.3125 11.328125 20.140625 9.421875 
Q 21.96875 7.515625 27.59375 7.515625 
L 36.8125 7.515625 
L 36.8125 0 
L 27.59375 0 
Q 17.1875 0 13.234375 3.875 
Q 9.28125 7.765625 9.28125 18.015625 
L 9.28125 47.703125 
L 2.6875 47.703125 
L 2.6875 54.6875 
L 9.28125 54.6875 
L 9.28125 70.21875 
z
" id="DejaVuSans-116"/>
      </defs>
      <use xlink:href="#DejaVuSans-67"/>
      <use x="69.824219" xlink:href="#DejaVuSans-111"/>
      <use x="131.005859" xlink:href="#DejaVuSans-117"/>
      <use x="194.384766" xlink:href="#DejaVuSans-110"/>
      <use x="257.763672" xlink:href="#DejaVuSans-116"/>
     </g>
    </g>
   </g>
   <g id="line2d_19">
    <path clip-path="url(#p976ae5ec6a)" d="M 179.904432 605.290909 
L 188.676485 605.290909 
L 189.013872 599.511005 
L 189.688645 605.290909 
L 191.712965 605.290909 
L 192.050352 602.400957 
L 192.387738 602.400957 
L 192.725125 596.621053 
L 193.062512 602.400957 
L 193.399898 582.171292 
L 193.737285 587.951196 
L 194.412058 553.27177 
L 194.749445 559.051675 
L 195.086832 559.051675 
L 195.424218 512.81244 
L 195.761605 527.262201 
L 196.098992 466.573206 
L 196.436378 466.573206 
L 196.773765 405.884211 
L 197.111152 405.884211 
L 197.448538 402.994258 
L 197.785925 371.204785 
L 198.123312 365.42488 
L 198.460698 345.195215 
L 198.798085 388.544498 
L 199.135472 371.204785 
L 199.472858 327.855502 
L 200.147632 420.333971 
L 200.485018 379.874641 
L 200.822405 449.233493 
L 201.159792 475.243062 
L 201.834565 512.81244 
L 202.171952 550.381818 
L 202.509338 547.491866 
L 202.846725 533.042105 
L 203.184112 576.391388 
L 203.521498 582.171292 
L 203.858885 582.171292 
L 204.196272 599.511005 
L 204.533658 587.951196 
L 204.871045 602.400957 
L 205.545818 602.400957 
L 205.883205 605.290909 
L 206.220592 602.400957 
L 206.557978 602.400957 
L 206.895365 605.290909 
L 216.342191 605.290909 
L 216.679578 602.400957 
L 217.016965 605.290909 
L 246.032218 605.290909 
L 246.369604 602.400957 
L 246.706991 605.290909 
L 262.901551 605.290909 
L 263.238937 602.400957 
L 263.576324 605.290909 
L 316.883417 605.290909 
L 317.220803 602.400957 
L 317.55819 605.290909 
L 317.895577 602.400957 
L 318.232963 605.290909 
L 319.245123 605.290909 
L 319.58251 602.400957 
L 319.919896 605.290909 
L 320.257283 602.400957 
L 320.59467 605.290909 
L 321.60683 605.290909 
L 321.944216 602.400957 
L 322.281603 605.290909 
L 322.61899 602.400957 
L 322.956376 605.290909 
L 323.293763 605.290909 
L 323.63115 602.400957 
L 323.968536 605.290909 
L 324.305923 602.400957 
L 324.64331 605.290909 
L 326.330243 605.290909 
L 326.66763 602.400957 
L 327.005016 605.290909 
L 327.67979 605.290909 
L 328.017176 602.400957 
L 328.354563 605.290909 
L 329.70411 605.290909 
L 330.041496 602.400957 
L 330.378883 605.290909 
L 333.077976 605.290909 
L 333.415363 602.400957 
L 333.75275 605.290909 
L 334.090136 605.290909 
L 334.427523 602.400957 
L 334.76491 602.400957 
L 335.102296 605.290909 
L 335.439683 605.290909 
L 335.77707 599.511005 
L 336.114456 605.290909 
L 336.451843 593.7311 
L 336.78923 602.400957 
L 337.126616 602.400957 
L 337.464003 605.290909 
L 337.80139 599.511005 
L 338.138776 602.400957 
L 338.81355 602.400957 
L 339.150936 605.290909 
L 339.488323 599.511005 
L 339.82571 602.400957 
L 340.163096 602.400957 
L 340.500483 596.621053 
L 340.83787 599.511005 
L 341.175256 593.7311 
L 341.512643 599.511005 
L 341.850029 599.511005 
L 342.187416 596.621053 
L 342.524803 599.511005 
L 342.862189 599.511005 
L 343.199576 605.290909 
L 343.874349 599.511005 
L 344.211736 605.290909 
L 344.549123 599.511005 
L 344.886509 602.400957 
L 345.223896 599.511005 
L 345.561283 599.511005 
L 345.898669 602.400957 
L 346.236056 602.400957 
L 346.573443 599.511005 
L 347.248216 599.511005 
L 347.585603 605.290909 
L 348.260376 599.511005 
L 348.597763 605.290909 
L 348.935149 602.400957 
L 349.272536 605.290909 
L 349.609923 605.290909 
L 349.947309 599.511005 
L 350.284696 605.290909 
L 350.622083 602.400957 
L 350.959469 605.290909 
L 351.296856 605.290909 
L 351.634243 602.400957 
L 351.971629 602.400957 
L 352.309016 605.290909 
L 352.646403 605.290909 
L 352.983789 602.400957 
L 353.321176 602.400957 
L 353.658563 605.290909 
L 1296.316895 605.290909 
L 1296.316895 605.290909 
" style="fill:none;stroke:#1f77b4;stroke-linecap:square;stroke-width:1.5;"/>
   </g>
   <g id="line2d_20">
    <path clip-path="url(#p976ae5ec6a)" d="M 179.904432 605.290909 
L 204.871045 605.290909 
L 205.208432 602.400957 
L 205.545818 605.290909 
L 221.740378 605.290909 
L 222.077765 602.400957 
L 222.415151 605.290909 
L 240.296644 605.290909 
L 240.634031 602.400957 
L 240.971418 605.290909 
L 243.333124 605.290909 
L 243.670511 602.400957 
L 244.007898 605.290909 
L 244.345284 605.290909 
L 244.682671 602.400957 
L 245.020058 605.290909 
L 246.706991 605.290909 
L 247.044378 602.400957 
L 247.381764 605.290909 
L 257.165977 605.290909 
L 257.503364 602.400957 
L 257.840751 605.290909 
L 280.783044 605.290909 
L 281.12043 602.400957 
L 281.457817 605.290909 
L 286.856004 605.290909 
L 287.19339 602.400957 
L 287.530777 605.290909 
L 298.32715 605.290909 
L 298.664537 602.400957 
L 299.001923 605.290909 
L 300.35147 605.290909 
L 300.688857 602.400957 
L 301.026243 605.290909 
L 318.907737 605.290909 
L 319.245123 602.400957 
L 319.58251 605.290909 
L 325.992856 605.290909 
L 326.330243 602.400957 
L 326.66763 605.290909 
L 327.342403 605.290909 
L 327.67979 602.400957 
L 328.017176 605.290909 
L 335.102296 605.290909 
L 335.439683 602.400957 
L 335.77707 605.290909 
L 349.609923 605.290909 
L 349.947309 602.400957 
L 350.284696 605.290909 
L 364.454936 605.290909 
L 364.792322 602.400957 
L 365.129709 605.290909 
L 373.226989 605.290909 
L 373.564376 602.400957 
L 373.901762 605.290909 
L 400.217922 605.290909 
L 400.555309 602.400957 
L 400.892695 605.290909 
L 404.266562 605.290909 
L 404.603949 602.400957 
L 404.941335 605.290909 
L 407.640428 605.290909 
L 407.977815 602.400957 
L 408.315202 605.290909 
L 409.327362 605.290909 
L 409.664748 602.400957 
L 410.002135 605.290909 
L 424.172375 605.290909 
L 424.509762 602.400957 
L 424.847148 605.290909 
L 444.415575 605.290909 
L 444.752961 602.400957 
L 445.090348 605.290909 
L 449.138988 605.290909 
L 449.476374 602.400957 
L 449.813761 605.290909 
L 455.211948 605.290909 
L 455.549334 602.400957 
L 455.886721 605.290909 
L 459.935361 605.290909 
L 460.272748 602.400957 
L 460.610134 605.290909 
L 477.142081 605.290909 
L 477.479467 602.400957 
L 477.816854 605.290909 
L 488.613227 605.290909 
L 488.950614 602.400957 
L 489.288001 605.290909 
L 490.637547 605.290909 
L 490.974934 602.400957 
L 491.31232 605.290909 
L 493.674027 605.290909 
L 494.011414 602.400957 
L 494.3488 602.400957 
L 494.686187 605.290909 
L 495.36096 605.290909 
L 495.698347 602.400957 
L 496.035734 605.290909 
L 496.37312 605.290909 
L 496.710507 599.511005 
L 497.38528 605.290909 
L 497.722667 596.621053 
L 498.060054 599.511005 
L 498.734827 593.7311 
L 499.072214 585.061244 
L 499.4096 582.171292 
L 499.746987 582.171292 
L 500.084374 579.28134 
L 500.42176 550.381818 
L 500.759147 544.601914 
L 501.096534 521.482297 
L 501.43392 530.152153 
L 501.771307 483.912919 
L 502.108694 466.573206 
L 502.44608 411.664115 
L 502.783467 417.444019 
L 503.120854 359.644976 
L 503.45824 388.544498 
L 503.795627 345.195215 
L 504.133014 330.745455 
L 504.4704 287.396172 
L 504.807787 267.166507 
L 505.145174 287.396172 
L 505.48256 264.276555 
L 505.819947 298.955981 
L 506.157334 261.386603 
L 506.49472 278.726316 
L 506.832107 348.085167 
L 507.169494 322.075598 
L 507.844267 388.544498 
L 508.181654 478.133014 
L 508.51904 463.683254 
L 508.856427 504.142584 
L 509.193814 521.482297 
L 509.5312 504.142584 
L 509.868587 556.161722 
L 510.205974 544.601914 
L 510.880747 590.841148 
L 511.55552 579.28134 
L 511.892907 602.400957 
L 512.230293 596.621053 
L 512.56768 605.290909 
L 512.905067 599.511005 
L 513.242453 605.290909 
L 513.57984 602.400957 
L 513.917227 605.290909 
L 1296.316895 605.290909 
L 1296.316895 605.290909 
" style="fill:none;stroke:#ff7f0e;stroke-linecap:square;stroke-width:1.5;"/>
   </g>
   <g id="line2d_21">
    <path clip-path="url(#p976ae5ec6a)" d="M 179.904432 605.290909 
L 210.606618 605.290909 
L 210.944005 602.400957 
L 211.281392 605.290909 
L 211.618778 602.400957 
L 211.956165 605.290909 
L 212.968325 605.290909 
L 213.305712 602.400957 
L 213.643098 605.290909 
L 214.992645 605.290909 
L 215.330031 602.400957 
L 215.667418 602.400957 
L 216.004805 605.290909 
L 216.342191 602.400957 
L 217.016965 602.400957 
L 217.354351 605.290909 
L 217.691738 599.511005 
L 218.029125 599.511005 
L 218.366511 605.290909 
L 218.703898 605.290909 
L 219.041285 602.400957 
L 219.378671 605.290909 
L 219.716058 605.290909 
L 220.053445 602.400957 
L 220.390831 605.290909 
L 221.065605 605.290909 
L 221.402991 602.400957 
L 221.740378 605.290909 
L 222.415151 605.290909 
L 222.752538 602.400957 
L 223.427311 602.400957 
L 223.764698 605.290909 
L 224.102085 605.290909 
L 224.439471 602.400957 
L 224.776858 605.290909 
L 225.451631 605.290909 
L 225.789018 602.400957 
L 226.126405 605.290909 
L 226.463791 602.400957 
L 226.801178 602.400957 
L 227.138565 605.290909 
L 231.524591 605.290909 
L 231.861978 602.400957 
L 232.199365 605.290909 
L 239.284484 605.290909 
L 239.621871 602.400957 
L 239.959258 605.290909 
L 246.032218 605.290909 
L 246.369604 602.400957 
L 246.706991 605.290909 
L 253.117338 605.290909 
L 253.454724 602.400957 
L 253.792111 605.290909 
L 254.466884 605.290909 
L 254.804271 602.400957 
L 255.141658 605.290909 
L 255.816431 605.290909 
L 256.153817 602.400957 
L 256.491204 605.290909 
L 263.576324 605.290909 
L 263.913711 602.400957 
L 264.251097 605.290909 
L 265.938031 605.290909 
L 266.275417 602.400957 
L 266.612804 605.290909 
L 305.41227 605.290909 
L 305.749657 602.400957 
L 306.087043 605.290909 
L 319.245123 605.290909 
L 319.58251 602.400957 
L 319.919896 605.290909 
L 320.932056 605.290909 
L 321.269443 602.400957 
L 321.60683 605.290909 
L 325.992856 605.290909 
L 326.330243 602.400957 
L 326.66763 605.290909 
L 327.342403 605.290909 
L 327.67979 602.400957 
L 328.017176 605.290909 
L 329.366723 605.290909 
L 329.70411 602.400957 
L 330.041496 605.290909 
L 336.114456 605.290909 
L 336.451843 602.400957 
L 336.78923 605.290909 
L 340.163096 605.290909 
L 340.500483 602.400957 
L 340.83787 605.290909 
L 344.211736 605.290909 
L 344.549123 602.400957 
L 344.886509 602.400957 
L 345.223896 605.290909 
L 352.983789 605.290909 
L 353.321176 602.400957 
L 353.658563 605.290909 
L 365.129709 605.290909 
L 365.467096 602.400957 
L 365.804482 605.290909 
L 368.166189 605.290909 
L 368.503576 602.400957 
L 368.840962 605.290909 
L 374.576536 605.290909 
L 374.913922 602.400957 
L 375.251309 605.290909 
L 376.263469 605.290909 
L 376.600856 602.400957 
L 377.275629 602.400957 
L 377.613016 605.290909 
L 377.950402 602.400957 
L 378.625176 602.400957 
L 378.962562 605.290909 
L 379.299949 605.290909 
L 379.974722 599.511005 
L 380.649496 605.290909 
L 380.986882 602.400957 
L 381.324269 602.400957 
L 381.661656 596.621053 
L 381.999042 605.290909 
L 382.336429 605.290909 
L 382.673816 602.400957 
L 383.011202 602.400957 
L 383.348589 605.290909 
L 384.023362 599.511005 
L 384.360749 602.400957 
L 385.035522 585.061244 
L 385.372909 590.841148 
L 385.710295 582.171292 
L 386.047682 596.621053 
L 386.722455 576.391388 
L 387.059842 582.171292 
L 387.397229 564.831579 
L 387.734615 576.391388 
L 388.072002 570.611483 
L 388.409389 527.262201 
L 388.746775 559.051675 
L 389.084162 521.482297 
L 389.758935 509.922488 
L 390.096322 501.252632 
L 390.433709 524.372249 
L 390.771095 457.903349 
L 391.445869 423.223923 
L 391.783255 446.343541 
L 392.458029 330.745455 
L 392.795415 400.104306 
L 393.132802 402.994258 
L 393.470189 394.324402 
L 393.807575 402.994258 
L 394.144962 327.855502 
L 394.482349 333.635407 
L 394.819735 362.534928 
L 395.157122 414.554067 
L 395.494509 353.865072 
L 395.831895 359.644976 
L 396.169282 394.324402 
L 396.506669 301.845933 
L 396.844055 356.755024 
L 397.181442 388.544498 
L 397.518829 368.314833 
L 397.856215 376.984689 
L 398.193602 394.324402 
L 398.530989 382.764593 
L 398.868375 376.984689 
L 399.205762 368.314833 
L 399.543149 371.204785 
L 399.880535 400.104306 
L 400.217922 440.563636 
L 400.555309 382.764593 
L 400.892695 426.113876 
L 401.230082 486.802871 
L 401.567469 455.013397 
L 401.904855 443.453589 
L 402.242242 478.133014 
L 402.579629 481.022967 
L 402.917015 498.362679 
L 403.254402 507.032536 
L 403.591789 509.922488 
L 404.266562 535.932057 
L 404.603949 559.051675 
L 404.941335 570.611483 
L 405.278722 573.501435 
L 405.616108 582.171292 
L 405.953495 573.501435 
L 406.290882 590.841148 
L 406.628268 587.951196 
L 406.965655 579.28134 
L 407.303042 596.621053 
L 407.640428 596.621053 
L 408.315202 590.841148 
L 408.652588 599.511005 
L 408.989975 587.951196 
L 409.327362 590.841148 
L 409.664748 596.621053 
L 410.002135 590.841148 
L 410.339522 602.400957 
L 410.676908 602.400957 
L 411.014295 593.7311 
L 411.351682 602.400957 
L 411.689068 605.290909 
L 412.026455 596.621053 
L 412.363842 596.621053 
L 412.701228 602.400957 
L 413.038615 602.400957 
L 413.376002 605.290909 
L 413.713388 599.511005 
L 414.050775 605.290909 
L 414.388162 602.400957 
L 414.725548 605.290909 
L 415.400322 605.290909 
L 415.737708 602.400957 
L 416.075095 605.290909 
L 1296.316895 605.290909 
L 1296.316895 605.290909 
" style="fill:none;stroke:#2ca02c;stroke-linecap:square;stroke-width:1.5;"/>
   </g>
   <g id="line2d_22">
    <path clip-path="url(#p976ae5ec6a)" d="M 179.904432 605.290909 
L 210.606618 605.290909 
L 210.944005 602.400957 
L 211.281392 605.290909 
L 213.980485 605.290909 
L 214.317871 602.400957 
L 214.655258 605.290909 
L 216.342191 605.290909 
L 216.679578 602.400957 
L 217.016965 602.400957 
L 217.354351 605.290909 
L 219.041285 605.290909 
L 219.378671 602.400957 
L 219.716058 605.290909 
L 221.065605 605.290909 
L 221.402991 602.400957 
L 221.740378 602.400957 
L 222.077765 605.290909 
L 222.752538 605.290909 
L 223.089925 602.400957 
L 223.427311 602.400957 
L 223.764698 605.290909 
L 225.114245 605.290909 
L 225.451631 602.400957 
L 225.789018 605.290909 
L 226.126405 602.400957 
L 226.463791 605.290909 
L 227.138565 605.290909 
L 227.475951 602.400957 
L 227.813338 602.400957 
L 228.150725 605.290909 
L 229.500271 605.290909 
L 229.837658 602.400957 
L 230.175045 605.290909 
L 237.260164 605.290909 
L 237.597551 602.400957 
L 237.934938 605.290909 
L 238.272324 602.400957 
L 238.609711 605.290909 
L 238.947098 602.400957 
L 239.284484 605.290909 
L 249.743471 605.290909 
L 250.080858 602.400957 
L 250.418244 605.290909 
L 259.865071 605.290909 
L 260.202457 602.400957 
L 260.539844 605.290909 
L 299.676697 605.290909 
L 300.014083 602.400957 
L 300.35147 605.290909 
L 317.55819 605.290909 
L 317.895577 602.400957 
L 318.232963 605.290909 
L 331.053656 605.290909 
L 331.391043 602.400957 
L 331.72843 605.290909 
L 342.862189 605.290909 
L 343.199576 602.400957 
L 343.536963 605.290909 
L 351.971629 605.290909 
L 352.309016 602.400957 
L 352.983789 602.400957 
L 353.321176 605.290909 
L 371.540056 605.290909 
L 371.877442 602.400957 
L 372.214829 605.290909 
L 381.324269 605.290909 
L 381.661656 602.400957 
L 381.999042 605.290909 
L 384.698135 605.290909 
L 385.035522 602.400957 
L 385.372909 605.290909 
L 387.059842 605.290909 
L 387.397229 602.400957 
L 387.734615 605.290909 
L 389.421549 605.290909 
L 389.758935 602.400957 
L 390.096322 605.290909 
L 390.433709 605.290909 
L 390.771095 602.400957 
L 391.108482 605.290909 
L 393.470189 605.290909 
L 394.144962 599.511005 
L 394.482349 605.290909 
L 394.819735 605.290909 
L 395.157122 599.511005 
L 395.494509 602.400957 
L 395.831895 599.511005 
L 396.169282 605.290909 
L 396.506669 599.511005 
L 396.844055 602.400957 
L 397.856215 602.400957 
L 398.193602 593.7311 
L 398.530989 599.511005 
L 399.205762 593.7311 
L 399.543149 602.400957 
L 399.880535 602.400957 
L 400.217922 596.621053 
L 400.555309 593.7311 
L 400.892695 596.621053 
L 401.230082 590.841148 
L 401.567469 599.511005 
L 401.904855 599.511005 
L 402.242242 590.841148 
L 402.579629 587.951196 
L 402.917015 579.28134 
L 403.254402 585.061244 
L 403.591789 564.831579 
L 403.929175 559.051675 
L 404.266562 559.051675 
L 404.603949 550.381818 
L 404.941335 518.592344 
L 405.278722 544.601914 
L 405.616108 475.243062 
L 405.953495 489.692823 
L 406.290882 481.022967 
L 406.628268 486.802871 
L 406.965655 486.802871 
L 407.303042 429.003828 
L 407.640428 397.214354 
L 407.977815 405.884211 
L 408.652588 345.195215 
L 408.989975 290.286124 
L 409.327362 272.946411 
L 410.002135 223.817225 
L 410.676908 275.836364 
L 411.014295 189.137799 
L 411.351682 267.166507 
L 411.689068 232.487081 
L 412.026455 301.845933 
L 412.363842 330.745455 
L 412.701228 313.405742 
L 413.038615 278.726316 
L 413.376002 322.075598 
L 413.713388 385.654545 
L 414.050775 420.333971 
L 414.388162 431.89378 
L 414.725548 507.032536 
L 415.062935 483.912919 
L 415.400322 527.262201 
L 415.737708 524.372249 
L 416.075095 550.381818 
L 416.412482 547.491866 
L 416.749868 579.28134 
L 417.087255 579.28134 
L 417.424642 567.721531 
L 418.436802 602.400957 
L 418.774188 599.511005 
L 419.111575 599.511005 
L 419.448962 602.400957 
L 419.786348 599.511005 
L 420.123735 599.511005 
L 420.461122 605.290909 
L 421.473282 605.290909 
L 421.810668 602.400957 
L 422.148055 605.290909 
L 422.485442 602.400957 
L 422.822828 605.290909 
L 423.160215 602.400957 
L 423.497602 605.290909 
L 425.521922 605.290909 
L 425.859308 602.400957 
L 426.196695 605.290909 
L 426.534081 605.290909 
L 426.871468 602.400957 
L 427.208855 605.290909 
L 1296.316895 605.290909 
L 1296.316895 605.290909 
" style="fill:none;stroke:#d62728;stroke-linecap:square;stroke-width:1.5;"/>
   </g>
   <g id="line2d_23">
    <path clip-path="url(#p976ae5ec6a)" d="M 179.904432 605.290909 
L 288.880324 605.290909 
L 289.21771 602.400957 
L 289.555097 605.290909 
L 290.22987 605.290909 
L 290.567257 602.400957 
L 290.904644 605.290909 
L 291.24203 605.290909 
L 291.579417 602.400957 
L 291.916804 605.290909 
L 300.688857 605.290909 
L 301.026243 602.400957 
L 301.36363 605.290909 
L 301.701017 602.400957 
L 302.038403 605.290909 
L 302.37579 605.290909 
L 302.713177 602.400957 
L 303.050563 605.290909 
L 308.111363 605.290909 
L 308.44875 602.400957 
L 308.786137 605.290909 
L 310.135683 605.290909 
L 310.47307 602.400957 
L 310.810457 605.290909 
L 319.245123 605.290909 
L 319.58251 602.400957 
L 319.919896 605.290909 
L 362.430616 605.290909 
L 362.768002 602.400957 
L 363.105389 605.290909 
L 456.561494 605.290909 
L 456.898881 602.400957 
L 457.236268 605.290909 
L 484.564587 605.290909 
L 484.901974 602.400957 
L 485.239361 605.290909 
L 496.710507 605.290909 
L 497.047894 602.400957 
L 497.38528 605.290909 
L 501.096534 605.290909 
L 501.43392 602.400957 
L 501.771307 605.290909 
L 511.892907 605.290909 
L 512.230293 602.400957 
L 512.56768 605.290909 
L 532.81088 605.290909 
L 533.148266 602.400957 
L 533.485653 605.290909 
L 535.84736 605.290909 
L 536.184746 602.400957 
L 536.522133 605.290909 
L 536.85952 602.400957 
L 537.196906 605.290909 
L 539.896 605.290909 
L 540.233386 602.400957 
L 540.570773 605.290909 
L 541.92032 605.290909 
L 542.257706 602.400957 
L 542.595093 605.290909 
L 542.93248 599.511005 
L 543.269866 605.290909 
L 544.619413 605.290909 
L 544.9568 602.400957 
L 545.96896 602.400957 
L 546.306346 605.290909 
L 546.643733 599.511005 
L 546.98112 599.511005 
L 547.318506 602.400957 
L 547.655893 599.511005 
L 548.330666 599.511005 
L 548.668053 605.290909 
L 549.00544 602.400957 
L 549.342826 587.951196 
L 549.680213 587.951196 
L 550.0176 582.171292 
L 550.354986 587.951196 
L 551.02976 593.7311 
L 551.367146 576.391388 
L 552.04192 559.051675 
L 552.716693 524.372249 
L 553.05408 515.702392 
L 553.391466 524.372249 
L 553.728853 509.922488 
L 554.06624 414.554067 
L 554.403626 434.783732 
L 554.741013 391.43445 
L 555.078399 322.075598 
L 555.415786 301.845933 
L 555.753173 327.855502 
L 556.090559 246.936842 
L 556.427946 272.946411 
L 556.765333 220.927273 
L 557.102719 142.898565 
L 557.777493 223.817225 
L 558.114879 186.247847 
L 558.789653 212.257416 
L 559.464426 287.396172 
L 559.801813 376.984689 
L 560.139199 359.644976 
L 560.476586 434.783732 
L 560.813973 397.214354 
L 561.151359 437.673684 
L 561.488746 452.123445 
L 562.163519 541.711962 
L 562.500906 544.601914 
L 562.838293 573.501435 
L 563.175679 547.491866 
L 563.850453 587.951196 
L 564.187839 587.951196 
L 564.525226 593.7311 
L 565.199999 599.511005 
L 565.537386 596.621053 
L 565.874773 605.290909 
L 566.212159 599.511005 
L 566.549546 605.290909 
L 1296.316895 605.290909 
L 1296.316895 605.290909 
" style="fill:none;stroke:#9467bd;stroke-linecap:square;stroke-width:1.5;"/>
   </g>
   <g id="line2d_24">
    <path clip-path="url(#p976ae5ec6a)" d="M 179.904432 605.290909 
L 251.093018 605.290909 
L 251.430404 602.400957 
L 251.767791 605.290909 
L 331.053656 605.290909 
L 331.391043 602.400957 
L 331.72843 605.290909 
L 562.838293 605.290909 
L 563.175679 602.400957 
L 563.513066 605.290909 
L 621.543572 605.290909 
L 621.880958 602.400957 
L 622.218345 605.290909 
L 628.291305 605.290909 
L 628.628692 602.400957 
L 628.966078 605.290909 
L 745.701863 605.290909 
L 746.03925 602.400957 
L 746.376636 605.290909 
L 763.24597 605.290909 
L 763.583356 602.400957 
L 763.920743 605.290909 
L 780.115303 605.290909 
L 780.452689 602.400957 
L 780.790076 605.290909 
L 814.866129 605.290909 
L 815.203515 602.400957 
L 815.540902 605.290909 
L 859.401168 605.290909 
L 859.738555 602.400957 
L 860.075941 605.290909 
L 895.164154 605.290909 
L 895.501541 602.400957 
L 895.838927 605.290909 
L 965.34058 605.290909 
L 965.677966 602.400957 
L 966.015353 605.290909 
L 1025.395405 605.290909 
L 1025.732792 602.400957 
L 1026.070179 605.290909 
L 1119.863671 605.290909 
L 1120.201057 602.400957 
L 1120.538444 605.290909 
L 1136.395617 605.290909 
L 1136.733004 602.400957 
L 1137.07039 605.290909 
L 1149.891084 605.290909 
L 1150.22847 602.400957 
L 1150.565857 605.290909 
L 1154.27711 605.290909 
L 1154.614497 602.400957 
L 1154.951883 605.290909 
L 1163.38655 605.290909 
L 1163.723937 602.400957 
L 1164.061323 605.290909 
L 1200.499083 605.290909 
L 1200.836469 602.400957 
L 1201.173856 605.290909 
L 1202.523403 605.290909 
L 1202.860789 602.400957 
L 1203.198176 605.290909 
L 1210.958069 605.290909 
L 1211.295456 602.400957 
L 1211.632843 605.290909 
L 1215.006709 605.290909 
L 1215.344096 602.400957 
L 1216.018869 602.400957 
L 1216.356256 605.290909 
L 1216.693642 602.400957 
L 1217.031029 605.290909 
L 1217.368416 605.290909 
L 1217.705802 599.511005 
L 1218.043189 605.290909 
L 1218.380576 605.290909 
L 1218.717962 602.400957 
L 1219.055349 593.7311 
L 1219.392736 602.400957 
L 1219.730122 602.400957 
L 1220.067509 587.951196 
L 1220.404896 596.621053 
L 1220.742282 596.621053 
L 1221.079669 590.841148 
L 1221.417056 599.511005 
L 1221.754442 590.841148 
L 1222.091829 590.841148 
L 1222.429216 599.511005 
L 1222.766602 593.7311 
L 1223.103989 585.061244 
L 1223.441376 567.721531 
L 1223.778762 582.171292 
L 1224.116149 587.951196 
L 1224.453536 582.171292 
L 1224.790922 570.611483 
L 1225.128309 553.27177 
L 1225.465696 550.381818 
L 1225.803082 550.381818 
L 1226.140469 518.592344 
L 1226.477856 498.362679 
L 1226.815242 466.573206 
L 1227.152629 489.692823 
L 1227.490016 391.43445 
L 1227.827402 402.994258 
L 1228.164789 405.884211 
L 1228.502176 313.405742 
L 1228.839562 376.984689 
L 1229.176949 304.735885 
L 1229.514336 304.735885 
L 1229.851722 171.798086 
L 1230.189109 229.597129 
L 1230.526496 200.697608 
L 1230.863882 183.357895 
L 1231.201269 122.6689 
L 1231.538656 192.027751 
L 1231.876042 215.147368 
L 1232.213429 111.109091 
L 1232.550816 137.11866 
L 1233.225589 223.817225 
L 1233.562976 284.50622 
L 1233.900362 293.176077 
L 1234.237749 290.286124 
L 1234.575136 339.415311 
L 1234.912522 408.774163 
L 1235.249909 431.89378 
L 1235.587296 469.463158 
L 1235.924682 492.582775 
L 1236.262069 478.133014 
L 1236.599455 533.042105 
L 1236.936842 547.491866 
L 1237.274229 544.601914 
L 1237.611615 553.27177 
L 1238.286389 590.841148 
L 1238.623775 579.28134 
L 1238.961162 593.7311 
L 1239.635935 605.290909 
L 1239.973322 605.290909 
L 1240.310709 602.400957 
L 1240.648095 605.290909 
L 1240.985482 602.400957 
L 1241.322869 602.400957 
L 1241.660255 605.290909 
L 1241.997642 602.400957 
L 1242.335029 605.290909 
L 1243.684575 605.290909 
L 1244.021962 602.400957 
L 1244.359349 605.290909 
L 1296.316895 605.290909 
L 1296.316895 605.290909 
" style="fill:none;stroke:#8c564b;stroke-linecap:square;stroke-width:1.5;"/>
   </g>
   <g id="line2d_25">
    <path clip-path="url(#p976ae5ec6a)" d="M 179.904432 605.290909 
L 194.749445 605.290909 
L 195.086832 602.400957 
L 195.424218 605.290909 
L 223.089925 605.290909 
L 223.427311 602.400957 
L 223.764698 605.290909 
L 233.886298 605.290909 
L 234.223685 602.400957 
L 234.561071 605.290909 
L 290.904644 605.290909 
L 291.24203 602.400957 
L 291.579417 605.290909 
L 318.907737 605.290909 
L 319.245123 602.400957 
L 319.58251 605.290909 
L 321.944216 605.290909 
L 322.281603 602.400957 
L 322.61899 605.290909 
L 327.67979 605.290909 
L 328.017176 602.400957 
L 328.354563 605.290909 
L 336.78923 605.290909 
L 337.126616 602.400957 
L 337.464003 605.290909 
L 344.549123 605.290909 
L 344.886509 602.400957 
L 345.223896 605.290909 
L 346.573443 605.290909 
L 346.910829 602.400957 
L 347.248216 605.290909 
L 348.935149 605.290909 
L 349.272536 602.400957 
L 349.609923 605.290909 
L 359.056749 605.290909 
L 359.394136 602.400957 
L 359.731523 605.290909 
L 361.418456 605.290909 
L 361.755843 602.400957 
L 362.093229 605.290909 
L 364.454936 605.290909 
L 364.792322 602.400957 
L 365.129709 605.290909 
L 370.527896 605.290909 
L 370.865282 602.400957 
L 371.202669 605.290909 
L 407.977815 605.290909 
L 408.315202 602.400957 
L 408.652588 605.290909 
L 467.020481 605.290909 
L 467.357868 602.400957 
L 467.695254 605.290909 
L 474.105601 605.290909 
L 474.442987 602.400957 
L 474.780374 605.290909 
L 483.889814 605.290909 
L 484.227201 602.400957 
L 484.564587 605.290909 
L 499.072214 605.290909 
L 499.4096 602.400957 
L 499.746987 605.290909 
L 503.120854 605.290909 
L 503.45824 602.400957 
L 503.795627 605.290909 
L 510.54336 605.290909 
L 510.880747 602.400957 
L 511.218134 605.290909 
L 525.388373 605.290909 
L 525.72576 602.400957 
L 526.063147 605.290909 
L 528.087467 605.290909 
L 528.424853 602.400957 
L 528.76224 605.290909 
L 550.692373 605.290909 
L 551.02976 602.400957 
L 551.367146 605.290909 
L 583.418879 605.290909 
L 583.756266 602.400957 
L 584.093652 605.290909 
L 605.686399 605.290909 
L 606.023785 602.400957 
L 606.361172 605.290909 
L 635.376425 605.290909 
L 635.713812 602.400957 
L 636.051198 605.290909 
L 639.425065 605.290909 
L 639.762451 602.400957 
L 640.099838 605.290909 
L 640.437225 602.400957 
L 640.774611 605.290909 
L 649.209278 605.290909 
L 649.546665 602.400957 
L 649.884051 605.290909 
L 651.908371 605.290909 
L 652.245758 602.400957 
L 652.583145 605.290909 
L 655.282238 605.290909 
L 655.619625 602.400957 
L 655.957011 605.290909 
L 664.391678 605.290909 
L 664.729064 602.400957 
L 665.066451 605.290909 
L 666.415998 605.290909 
L 666.753384 602.400957 
L 667.090771 605.290909 
L 675.525438 605.290909 
L 675.862824 602.400957 
L 676.200211 605.290909 
L 694.756477 605.290909 
L 695.093864 602.400957 
L 695.431251 605.290909 
L 696.780797 605.290909 
L 697.118184 602.400957 
L 697.455571 605.290909 
L 707.239784 605.290909 
L 707.57717 602.400957 
L 707.914557 605.290909 
L 708.251944 605.290909 
L 708.58933 599.511005 
L 708.926717 605.290909 
L 710.61365 605.290909 
L 710.951037 602.400957 
L 711.288424 605.290909 
L 713.65013 605.290909 
L 713.987517 602.400957 
L 714.324904 605.290909 
L 714.999677 605.290909 
L 715.337064 602.400957 
L 715.67445 605.290909 
L 717.361384 605.290909 
L 717.69877 599.511005 
L 718.036157 605.290909 
L 718.71093 599.511005 
L 719.385704 605.290909 
L 719.72309 602.400957 
L 720.060477 605.290909 
L 720.397864 599.511005 
L 720.73525 590.841148 
L 721.072637 602.400957 
L 721.410024 593.7311 
L 721.74741 596.621053 
L 722.422184 590.841148 
L 722.75957 596.621053 
L 723.096957 573.501435 
L 723.434344 567.721531 
L 723.77173 556.161722 
L 724.109117 521.482297 
L 724.446504 518.592344 
L 724.78389 483.912919 
L 725.121277 469.463158 
L 725.458663 463.683254 
L 725.79605 382.764593 
L 726.133437 379.874641 
L 726.470823 365.42488 
L 726.80821 324.96555 
L 727.145597 333.635407 
L 727.482983 290.286124 
L 727.82037 278.726316 
L 728.157757 258.496651 
L 728.495143 209.367464 
L 728.83253 229.597129 
L 729.169917 241.156938 
L 729.507303 310.515789 
L 729.84469 267.166507 
L 730.182077 365.42488 
L 730.519463 376.984689 
L 730.85685 342.305263 
L 731.194237 391.43445 
L 731.531623 478.133014 
L 731.86901 466.573206 
L 732.206397 541.711962 
L 732.543783 547.491866 
L 732.88117 547.491866 
L 733.89333 573.501435 
L 734.230717 585.061244 
L 734.568103 605.290909 
L 734.90549 605.290909 
L 735.242877 596.621053 
L 735.580263 602.400957 
L 735.91765 599.511005 
L 736.255037 605.290909 
L 736.592423 602.400957 
L 736.92981 605.290909 
L 1296.316895 605.290909 
L 1296.316895 605.290909 
" style="fill:none;stroke:#e377c2;stroke-linecap:square;stroke-width:1.5;"/>
   </g>
   <g id="patch_3">
    <path d="M 180 630 
L 180 86.4 
" style="fill:none;stroke:#000000;stroke-linecap:square;stroke-linejoin:miter;stroke-width:0.8;"/>
   </g>
   <g id="patch_4">
    <path d="M 1296 630 
L 1296 86.4 
" style="fill:none;stroke:#000000;stroke-linecap:square;stroke-linejoin:miter;stroke-width:0.8;"/>
   </g>
   <g id="patch_5">
    <path d="M 180 630 
L 1296 630 
" style="fill:none;stroke:#000000;stroke-linecap:square;stroke-linejoin:miter;stroke-width:0.8;"/>
   </g>
   <g id="patch_6">
    <path d="M 180 86.4 
L 1296 86.4 
" style="fill:none;stroke:#000000;stroke-linecap:square;stroke-linejoin:miter;stroke-width:0.8;"/>
   </g>
   <g id="text_21">
    <!-- Energy histogram -->
    <g transform="translate(684.670313 80.4)scale(0.12 -0.12)">
     <defs>
      <path d="M 54.890625 33.015625 
L 54.890625 0 
L 45.90625 0 
L 45.90625 32.71875 
Q 45.90625 40.484375 42.875 44.328125 
Q 39.84375 48.1875 33.796875 48.1875 
Q 26.515625 48.1875 22.3125 43.546875 
Q 18.109375 38.921875 18.109375 30.90625 
L 18.109375 0 
L 9.078125 0 
L 9.078125 75.984375 
L 18.109375 75.984375 
L 18.109375 46.1875 
Q 21.34375 51.125 25.703125 53.5625 
Q 30.078125 56 35.796875 56 
Q 45.21875 56 50.046875 50.171875 
Q 54.890625 44.34375 54.890625 33.015625 
z
" id="DejaVuSans-104"/>
      <path d="M 9.421875 54.6875 
L 18.40625 54.6875 
L 18.40625 0 
L 9.421875 0 
z
M 9.421875 75.984375 
L 18.40625 75.984375 
L 18.40625 64.59375 
L 9.421875 64.59375 
z
" id="DejaVuSans-105"/>
      <path d="M 44.28125 53.078125 
L 44.28125 44.578125 
Q 40.484375 46.53125 36.375 47.5 
Q 32.28125 48.484375 27.875 48.484375 
Q 21.1875 48.484375 17.84375 46.4375 
Q 14.5 44.390625 14.5 40.28125 
Q 14.5 37.15625 16.890625 35.375 
Q 19.28125 33.59375 26.515625 31.984375 
L 29.59375 31.296875 
Q 39.15625 29.25 43.1875 25.515625 
Q 47.21875 21.78125 47.21875 15.09375 
Q 47.21875 7.46875 41.1875 3.015625 
Q 35.15625 -1.421875 24.609375 -1.421875 
Q 20.21875 -1.421875 15.453125 -0.5625 
Q 10.6875 0.296875 5.421875 2 
L 5.421875 11.28125 
Q 10.40625 8.6875 15.234375 7.390625 
Q 20.0625 6.109375 24.8125 6.109375 
Q 31.15625 6.109375 34.5625 8.28125 
Q 37.984375 10.453125 37.984375 14.40625 
Q 37.984375 18.0625 35.515625 20.015625 
Q 33.0625 21.96875 24.703125 23.78125 
L 21.578125 24.515625 
Q 13.234375 26.265625 9.515625 29.90625 
Q 5.8125 33.546875 5.8125 39.890625 
Q 5.8125 47.609375 11.28125 51.796875 
Q 16.75 56 26.8125 56 
Q 31.78125 56 36.171875 55.265625 
Q 40.578125 54.546875 44.28125 53.078125 
z
" id="DejaVuSans-115"/>
      <path d="M 34.28125 27.484375 
Q 23.390625 27.484375 19.1875 25 
Q 14.984375 22.515625 14.984375 16.5 
Q 14.984375 11.71875 18.140625 8.90625 
Q 21.296875 6.109375 26.703125 6.109375 
Q 34.1875 6.109375 38.703125 11.40625 
Q 43.21875 16.703125 43.21875 25.484375 
L 43.21875 27.484375 
z
M 52.203125 31.203125 
L 52.203125 0 
L 43.21875 0 
L 43.21875 8.296875 
Q 40.140625 3.328125 35.546875 0.953125 
Q 30.953125 -1.421875 24.3125 -1.421875 
Q 15.921875 -1.421875 10.953125 3.296875 
Q 6 8.015625 6 15.921875 
Q 6 25.140625 12.171875 29.828125 
Q 18.359375 34.515625 30.609375 34.515625 
L 43.21875 34.515625 
L 43.21875 35.40625 
Q 43.21875 41.609375 39.140625 45 
Q 35.0625 48.390625 27.6875 48.390625 
Q 23 48.390625 18.546875 47.265625 
Q 14.109375 46.140625 10.015625 43.890625 
L 10.015625 52.203125 
Q 14.9375 54.109375 19.578125 55.046875 
Q 24.21875 56 28.609375 56 
Q 40.484375 56 46.34375 49.84375 
Q 52.203125 43.703125 52.203125 31.203125 
z
" id="DejaVuSans-97"/>
      <path d="M 52 44.1875 
Q 55.375 50.25 60.0625 53.125 
Q 64.75 56 71.09375 56 
Q 79.640625 56 84.28125 50.015625 
Q 88.921875 44.046875 88.921875 33.015625 
L 88.921875 0 
L 79.890625 0 
L 79.890625 32.71875 
Q 79.890625 40.578125 77.09375 44.375 
Q 74.3125 48.1875 68.609375 48.1875 
Q 61.625 48.1875 57.5625 43.546875 
Q 53.515625 38.921875 53.515625 30.90625 
L 53.515625 0 
L 44.484375 0 
L 44.484375 32.71875 
Q 44.484375 40.625 41.703125 44.40625 
Q 38.921875 48.1875 33.109375 48.1875 
Q 26.21875 48.1875 22.15625 43.53125 
Q 18.109375 38.875 18.109375 30.90625 
L 18.109375 0 
L 9.078125 0 
L 9.078125 54.6875 
L 18.109375 54.6875 
L 18.109375 46.1875 
Q 21.1875 51.21875 25.484375 53.609375 
Q 29.78125 56 35.6875 56 
Q 41.65625 56 45.828125 52.96875 
Q 50 49.953125 52 44.1875 
z
" id="DejaVuSans-109"/>
     </defs>
     <use xlink:href="#DejaVuSans-69"/>
     <use x="63.183594" xlink:href="#DejaVuSans-110"/>
     <use x="126.5625" xlink:href="#DejaVuSans-101"/>
     <use x="188.085938" xlink:href="#DejaVuSans-114"/>
     <use x="227.449219" xlink:href="#DejaVuSans-103"/>
     <use x="290.925781" xlink:href="#DejaVuSans-121"/>
     <use x="350.105469" xlink:href="#DejaVuSans-32"/>
     <use x="381.892578" xlink:href="#DejaVuSans-104"/>
     <use x="445.271484" xlink:href="#DejaVuSans-105"/>
     <use x="473.054688" xlink:href="#DejaVuSans-115"/>
     <use x="525.154297" xlink:href="#DejaVuSans-116"/>
     <use x="564.363281" xlink:href="#DejaVuSans-111"/>
     <use x="625.544922" xlink:href="#DejaVuSans-103"/>
     <use x="689.021484" xlink:href="#DejaVuSans-114"/>
     <use x="730.134766" xlink:href="#DejaVuSans-97"/>
     <use x="791.414062" xlink:href="#DejaVuSans-109"/>
    </g>
   </g>
   <g id="legend_1">
    <g id="patch_7">
     <path d="M 187 197.146875 
L 276.685938 197.146875 
Q 278.685938 197.146875 278.685938 195.146875 
L 278.685938 93.4 
Q 278.685938 91.4 276.685938 91.4 
L 187 91.4 
Q 185 91.4 185 93.4 
L 185 195.146875 
Q 185 197.146875 187 197.146875 
z
" style="fill:#ffffff;opacity:0.8;stroke:#cccccc;stroke-linejoin:miter;"/>
    </g>
    <g id="line2d_26">
     <path d="M 189 99.498437 
L 209 99.498437 
" style="fill:none;stroke:#1f77b4;stroke-linecap:square;stroke-width:1.5;"/>
    </g>
    <g id="line2d_27"/>
    <g id="text_22">
     <!-- Proton577 -->
     <g transform="translate(217 102.998437)scale(0.1 -0.1)">
      <defs>
       <path d="M 19.671875 64.796875 
L 19.671875 37.40625 
L 32.078125 37.40625 
Q 38.96875 37.40625 42.71875 40.96875 
Q 46.484375 44.53125 46.484375 51.125 
Q 46.484375 57.671875 42.71875 61.234375 
Q 38.96875 64.796875 32.078125 64.796875 
z
M 9.8125 72.90625 
L 32.078125 72.90625 
Q 44.34375 72.90625 50.609375 67.359375 
Q 56.890625 61.8125 56.890625 51.125 
Q 56.890625 40.328125 50.609375 34.8125 
Q 44.34375 29.296875 32.078125 29.296875 
L 19.671875 29.296875 
L 19.671875 0 
L 9.8125 0 
z
" id="DejaVuSans-80"/>
      </defs>
      <use xlink:href="#DejaVuSans-80"/>
      <use x="58.552734" xlink:href="#DejaVuSans-114"/>
      <use x="97.416016" xlink:href="#DejaVuSans-111"/>
      <use x="158.597656" xlink:href="#DejaVuSans-116"/>
      <use x="197.806641" xlink:href="#DejaVuSans-111"/>
      <use x="258.988281" xlink:href="#DejaVuSans-110"/>
      <use x="322.367188" xlink:href="#DejaVuSans-53"/>
      <use x="385.990234" xlink:href="#DejaVuSans-55"/>
      <use x="449.613281" xlink:href="#DejaVuSans-55"/>
     </g>
    </g>
    <g id="line2d_28">
     <path d="M 189 114.176562 
L 209 114.176562 
" style="fill:none;stroke:#ff7f0e;stroke-linecap:square;stroke-width:1.5;"/>
    </g>
    <g id="line2d_29"/>
    <g id="text_23">
     <!-- Proton1815 -->
     <g transform="translate(217 117.676562)scale(0.1 -0.1)">
      <defs>
       <path d="M 31.78125 34.625 
Q 24.75 34.625 20.71875 30.859375 
Q 16.703125 27.09375 16.703125 20.515625 
Q 16.703125 13.921875 20.71875 10.15625 
Q 24.75 6.390625 31.78125 6.390625 
Q 38.8125 6.390625 42.859375 10.171875 
Q 46.921875 13.96875 46.921875 20.515625 
Q 46.921875 27.09375 42.890625 30.859375 
Q 38.875 34.625 31.78125 34.625 
z
M 21.921875 38.8125 
Q 15.578125 40.375 12.03125 44.71875 
Q 8.5 49.078125 8.5 55.328125 
Q 8.5 64.0625 14.71875 69.140625 
Q 20.953125 74.21875 31.78125 74.21875 
Q 42.671875 74.21875 48.875 69.140625 
Q 55.078125 64.0625 55.078125 55.328125 
Q 55.078125 49.078125 51.53125 44.71875 
Q 48 40.375 41.703125 38.8125 
Q 48.828125 37.15625 52.796875 32.3125 
Q 56.78125 27.484375 56.78125 20.515625 
Q 56.78125 9.90625 50.3125 4.234375 
Q 43.84375 -1.421875 31.78125 -1.421875 
Q 19.734375 -1.421875 13.25 4.234375 
Q 6.78125 9.90625 6.78125 20.515625 
Q 6.78125 27.484375 10.78125 32.3125 
Q 14.796875 37.15625 21.921875 38.8125 
z
M 18.3125 54.390625 
Q 18.3125 48.734375 21.84375 45.5625 
Q 25.390625 42.390625 31.78125 42.390625 
Q 38.140625 42.390625 41.71875 45.5625 
Q 45.3125 48.734375 45.3125 54.390625 
Q 45.3125 60.0625 41.71875 63.234375 
Q 38.140625 66.40625 31.78125 66.40625 
Q 25.390625 66.40625 21.84375 63.234375 
Q 18.3125 60.0625 18.3125 54.390625 
z
" id="DejaVuSans-56"/>
      </defs>
      <use xlink:href="#DejaVuSans-80"/>
      <use x="58.552734" xlink:href="#DejaVuSans-114"/>
      <use x="97.416016" xlink:href="#DejaVuSans-111"/>
      <use x="158.597656" xlink:href="#DejaVuSans-116"/>
      <use x="197.806641" xlink:href="#DejaVuSans-111"/>
      <use x="258.988281" xlink:href="#DejaVuSans-110"/>
      <use x="322.367188" xlink:href="#DejaVuSans-49"/>
      <use x="385.990234" xlink:href="#DejaVuSans-56"/>
      <use x="449.613281" xlink:href="#DejaVuSans-49"/>
      <use x="513.236328" xlink:href="#DejaVuSans-53"/>
     </g>
    </g>
    <g id="line2d_30">
     <path d="M 189 128.854687 
L 209 128.854687 
" style="fill:none;stroke:#2ca02c;stroke-linecap:square;stroke-width:1.5;"/>
    </g>
    <g id="line2d_31"/>
    <g id="text_24">
     <!-- 1400 -->
     <g transform="translate(217 132.354687)scale(0.1 -0.1)">
      <defs>
       <path d="M 41.3125 25.4375 
L 39.15625 36.71875 
Q 36.96875 48.296875 28.265625 48.296875 
Q 21.734375 48.296875 18.75 42.921875 
Q 14.984375 36.1875 14.984375 27.296875 
Q 14.984375 16.546875 18.65625 11.421875 
Q 22.359375 6.203125 28.265625 6.203125 
Q 34.8125 6.203125 38.328125 16.609375 
z
M 46.34375 40.375 
L 51.171875 54.6875 
L 59.1875 54.6875 
L 49.171875 25.046875 
L 51.125 14.359375 
Q 51.5625 11.96875 53.265625 9.96875 
Q 55.28125 7.625 56.84375 7.625 
L 61.140625 7.625 
L 61.140625 0 
L 55.765625 0 
Q 51.171875 0 47.078125 4.109375 
Q 45.0625 6.15625 44.234375 10.453125 
Q 42 5.03125 37.40625 0.78125 
Q 35.25 -1.21875 28.265625 -1.21875 
Q 16.796875 -1.21875 11.234375 6.203125 
Q 5.515625 13.875 5.515625 27.296875 
Q 5.515625 41.65625 11.71875 48.390625 
Q 18.609375 55.90625 28.265625 55.90625 
Q 43.453125 55.90625 46.34375 40.375 
z
" id="DejaVuSans-945"/>
      </defs>
      <use xlink:href="#DejaVuSans-945"/>
      <use x="65.917969" xlink:href="#DejaVuSans-49"/>
      <use x="129.541016" xlink:href="#DejaVuSans-52"/>
      <use x="193.164062" xlink:href="#DejaVuSans-48"/>
      <use x="256.787109" xlink:href="#DejaVuSans-48"/>
     </g>
    </g>
    <g id="line2d_32">
     <path d="M 189 143.532812 
L 209 143.532812 
" style="fill:none;stroke:#d62728;stroke-linecap:square;stroke-width:1.5;"/>
    </g>
    <g id="line2d_33"/>
    <g id="text_25">
     <!-- 1464 -->
     <g transform="translate(217 147.032812)scale(0.1 -0.1)">
      <defs>
       <path d="M 33.015625 40.375 
Q 26.375 40.375 22.484375 35.828125 
Q 18.609375 31.296875 18.609375 23.390625 
Q 18.609375 15.53125 22.484375 10.953125 
Q 26.375 6.390625 33.015625 6.390625 
Q 39.65625 6.390625 43.53125 10.953125 
Q 47.40625 15.53125 47.40625 23.390625 
Q 47.40625 31.296875 43.53125 35.828125 
Q 39.65625 40.375 33.015625 40.375 
z
M 52.59375 71.296875 
L 52.59375 62.3125 
Q 48.875 64.0625 45.09375 64.984375 
Q 41.3125 65.921875 37.59375 65.921875 
Q 27.828125 65.921875 22.671875 59.328125 
Q 17.53125 52.734375 16.796875 39.40625 
Q 19.671875 43.65625 24.015625 45.921875 
Q 28.375 48.1875 33.59375 48.1875 
Q 44.578125 48.1875 50.953125 41.515625 
Q 57.328125 34.859375 57.328125 23.390625 
Q 57.328125 12.15625 50.6875 5.359375 
Q 44.046875 -1.421875 33.015625 -1.421875 
Q 20.359375 -1.421875 13.671875 8.265625 
Q 6.984375 17.96875 6.984375 36.375 
Q 6.984375 53.65625 15.1875 63.9375 
Q 23.390625 74.21875 37.203125 74.21875 
Q 40.921875 74.21875 44.703125 73.484375 
Q 48.484375 72.75 52.59375 71.296875 
z
" id="DejaVuSans-54"/>
      </defs>
      <use xlink:href="#DejaVuSans-945"/>
      <use x="65.917969" xlink:href="#DejaVuSans-49"/>
      <use x="129.541016" xlink:href="#DejaVuSans-52"/>
      <use x="193.164062" xlink:href="#DejaVuSans-54"/>
      <use x="256.787109" xlink:href="#DejaVuSans-52"/>
     </g>
    </g>
    <g id="line2d_34">
     <path d="M 189 158.210937 
L 209 158.210937 
" style="fill:none;stroke:#9467bd;stroke-linecap:square;stroke-width:1.5;"/>
    </g>
    <g id="line2d_35"/>
    <g id="text_26">
     <!-- 2050 -->
     <g transform="translate(217 161.710937)scale(0.1 -0.1)">
      <use xlink:href="#DejaVuSans-945"/>
      <use x="65.917969" xlink:href="#DejaVuSans-50"/>
      <use x="129.541016" xlink:href="#DejaVuSans-48"/>
      <use x="193.164062" xlink:href="#DejaVuSans-53"/>
      <use x="256.787109" xlink:href="#DejaVuSans-48"/>
     </g>
    </g>
    <g id="line2d_36">
     <path d="M 189 172.889062 
L 209 172.889062 
" style="fill:none;stroke:#8c564b;stroke-linecap:square;stroke-width:1.5;"/>
    </g>
    <g id="line2d_37"/>
    <g id="text_27">
     <!-- 4750 -->
     <g transform="translate(217 176.389062)scale(0.1 -0.1)">
      <use xlink:href="#DejaVuSans-945"/>
      <use x="65.917969" xlink:href="#DejaVuSans-52"/>
      <use x="129.541016" xlink:href="#DejaVuSans-55"/>
      <use x="193.164062" xlink:href="#DejaVuSans-53"/>
      <use x="256.787109" xlink:href="#DejaVuSans-48"/>
     </g>
    </g>
    <g id="line2d_38">
     <path d="M 189 187.567187 
L 209 187.567187 
" style="fill:none;stroke:#e377c2;stroke-linecap:square;stroke-width:1.5;"/>
    </g>
    <g id="line2d_39"/>
    <g id="text_28">
     <!-- Triton2730 -->
     <g transform="translate(217 191.067187)scale(0.1 -0.1)">
      <defs>
       <path d="M -0.296875 72.90625 
L 61.375 72.90625 
L 61.375 64.59375 
L 35.5 64.59375 
L 35.5 0 
L 25.59375 0 
L 25.59375 64.59375 
L -0.296875 64.59375 
z
" id="DejaVuSans-84"/>
      </defs>
      <use xlink:href="#DejaVuSans-84"/>
      <use x="46.333984" xlink:href="#DejaVuSans-114"/>
      <use x="87.447266" xlink:href="#DejaVuSans-105"/>
      <use x="115.230469" xlink:href="#DejaVuSans-116"/>
      <use x="154.439453" xlink:href="#DejaVuSans-111"/>
      <use x="215.621094" xlink:href="#DejaVuSans-110"/>
      <use x="279" xlink:href="#DejaVuSans-50"/>
      <use x="342.623047" xlink:href="#DejaVuSans-55"/>
      <use x="406.246094" xlink:href="#DejaVuSans-51"/>
      <use x="469.869141" xlink:href="#DejaVuSans-48"/>
     </g>
    </g>
   </g>
  </g>
 </g>
 <defs>
  <clipPath id="p976ae5ec6a">
   <rect height="543.6" width="1116" x="180" y="86.4"/>
  </clipPath>
 </defs>
</svg>
