<?xml version="1.0" encoding="utf-8" standalone="no"?>
<!DOCTYPE svg PUBLIC "-//W3C//DTD SVG 1.1//EN"
  "http://www.w3.org/Graphics/SVG/1.1/DTD/svg11.dtd">
<!-- Created with matplotlib (https://matplotlib.org/) -->
<svg height="720pt" version="1.1" viewBox="0 0 1080 720" width="1080pt" xmlns="http://www.w3.org/2000/svg" xmlns:xlink="http://www.w3.org/1999/xlink">
 <metadata>
  <rdf:RDF xmlns:cc="http://creativecommons.org/ns#" xmlns:dc="http://purl.org/dc/elements/1.1/" xmlns:rdf="http://www.w3.org/1999/02/22-rdf-syntax-ns#">
   <cc:Work>
    <dc:type rdf:resource="http://purl.org/dc/dcmitype/StillImage"/>
    <dc:date>2021-12-17T17:11:47.517230</dc:date>
    <dc:format>image/svg+xml</dc:format>
    <dc:creator>
     <cc:Agent>
      <dc:title>Matplotlib v3.3.4, https://matplotlib.org/</dc:title>
     </cc:Agent>
    </dc:creator>
   </cc:Work>
  </rdf:RDF>
 </metadata>
 <defs>
  <style type="text/css">*{stroke-linecap:butt;stroke-linejoin:round;}</style>
 </defs>
 <g id="figure_1">
  <g id="patch_1">
   <path d="M 0 720 
L 1080 720 
L 1080 0 
L 0 0 
z
" style="fill:#ffffff;"/>
  </g>
  <g id="axes_1">
   <g id="patch_2">
    <path d="M 135 630 
L 972 630 
L 972 86.4 
L 135 86.4 
z
" style="fill:#ffffff;"/>
   </g>
   <g id="matplotlib.axis_1">
    <g id="xtick_1">
     <g id="line2d_1">
      <defs>
       <path d="M 0 0 
L 0 3.5 
" id="mfb3c17d44d" style="stroke:#000000;stroke-width:0.8;"/>
      </defs>
      <g>
       <use style="stroke:#000000;stroke-width:0.8;" x="135" xlink:href="#mfb3c17d44d" y="630"/>
      </g>
     </g>
     <g id="text_1">
      <!-- 500 -->
      <g transform="translate(125.45625 644.598438)scale(0.1 -0.1)">
       <defs>
        <path d="M 10.796875 72.90625 
L 49.515625 72.90625 
L 49.515625 64.59375 
L 19.828125 64.59375 
L 19.828125 46.734375 
Q 21.96875 47.46875 24.109375 47.828125 
Q 26.265625 48.1875 28.421875 48.1875 
Q 40.625 48.1875 47.75 41.5 
Q 54.890625 34.8125 54.890625 23.390625 
Q 54.890625 11.625 47.5625 5.09375 
Q 40.234375 -1.421875 26.90625 -1.421875 
Q 22.3125 -1.421875 17.546875 -0.640625 
Q 12.796875 0.140625 7.71875 1.703125 
L 7.71875 11.625 
Q 12.109375 9.234375 16.796875 8.0625 
Q 21.484375 6.890625 26.703125 6.890625 
Q 35.15625 6.890625 40.078125 11.328125 
Q 45.015625 15.765625 45.015625 23.390625 
Q 45.015625 31 40.078125 35.4375 
Q 35.15625 39.890625 26.703125 39.890625 
Q 22.75 39.890625 18.8125 39.015625 
Q 14.890625 38.140625 10.796875 36.28125 
z
" id="DejaVuSans-53"/>
        <path d="M 31.78125 66.40625 
Q 24.171875 66.40625 20.328125 58.90625 
Q 16.5 51.421875 16.5 36.375 
Q 16.5 21.390625 20.328125 13.890625 
Q 24.171875 6.390625 31.78125 6.390625 
Q 39.453125 6.390625 43.28125 13.890625 
Q 47.125 21.390625 47.125 36.375 
Q 47.125 51.421875 43.28125 58.90625 
Q 39.453125 66.40625 31.78125 66.40625 
z
M 31.78125 74.21875 
Q 44.046875 74.21875 50.515625 64.515625 
Q 56.984375 54.828125 56.984375 36.375 
Q 56.984375 17.96875 50.515625 8.265625 
Q 44.046875 -1.421875 31.78125 -1.421875 
Q 19.53125 -1.421875 13.0625 8.265625 
Q 6.59375 17.96875 6.59375 36.375 
Q 6.59375 54.828125 13.0625 64.515625 
Q 19.53125 74.21875 31.78125 74.21875 
z
" id="DejaVuSans-48"/>
       </defs>
       <use xlink:href="#DejaVuSans-53"/>
       <use x="63.623047" xlink:href="#DejaVuSans-48"/>
       <use x="127.246094" xlink:href="#DejaVuSans-48"/>
      </g>
     </g>
    </g>
    <g id="xtick_2">
     <g id="line2d_2">
      <g>
       <use style="stroke:#000000;stroke-width:0.8;" x="228" xlink:href="#mfb3c17d44d" y="630"/>
      </g>
     </g>
     <g id="text_2">
      <!-- 1000 -->
      <g transform="translate(215.275 644.598438)scale(0.1 -0.1)">
       <defs>
        <path d="M 12.40625 8.296875 
L 28.515625 8.296875 
L 28.515625 63.921875 
L 10.984375 60.40625 
L 10.984375 69.390625 
L 28.421875 72.90625 
L 38.28125 72.90625 
L 38.28125 8.296875 
L 54.390625 8.296875 
L 54.390625 0 
L 12.40625 0 
z
" id="DejaVuSans-49"/>
       </defs>
       <use xlink:href="#DejaVuSans-49"/>
       <use x="63.623047" xlink:href="#DejaVuSans-48"/>
       <use x="127.246094" xlink:href="#DejaVuSans-48"/>
       <use x="190.869141" xlink:href="#DejaVuSans-48"/>
      </g>
     </g>
    </g>
    <g id="xtick_3">
     <g id="line2d_3">
      <g>
       <use style="stroke:#000000;stroke-width:0.8;" x="321" xlink:href="#mfb3c17d44d" y="630"/>
      </g>
     </g>
     <g id="text_3">
      <!-- 1500 -->
      <g transform="translate(308.275 644.598438)scale(0.1 -0.1)">
       <use xlink:href="#DejaVuSans-49"/>
       <use x="63.623047" xlink:href="#DejaVuSans-53"/>
       <use x="127.246094" xlink:href="#DejaVuSans-48"/>
       <use x="190.869141" xlink:href="#DejaVuSans-48"/>
      </g>
     </g>
    </g>
    <g id="xtick_4">
     <g id="line2d_4">
      <g>
       <use style="stroke:#000000;stroke-width:0.8;" x="414" xlink:href="#mfb3c17d44d" y="630"/>
      </g>
     </g>
     <g id="text_4">
      <!-- 2000 -->
      <g transform="translate(401.275 644.598438)scale(0.1 -0.1)">
       <defs>
        <path d="M 19.1875 8.296875 
L 53.609375 8.296875 
L 53.609375 0 
L 7.328125 0 
L 7.328125 8.296875 
Q 12.9375 14.109375 22.625 23.890625 
Q 32.328125 33.6875 34.8125 36.53125 
Q 39.546875 41.84375 41.421875 45.53125 
Q 43.3125 49.21875 43.3125 52.78125 
Q 43.3125 58.59375 39.234375 62.25 
Q 35.15625 65.921875 28.609375 65.921875 
Q 23.96875 65.921875 18.8125 64.3125 
Q 13.671875 62.703125 7.8125 59.421875 
L 7.8125 69.390625 
Q 13.765625 71.78125 18.9375 73 
Q 24.125 74.21875 28.421875 74.21875 
Q 39.75 74.21875 46.484375 68.546875 
Q 53.21875 62.890625 53.21875 53.421875 
Q 53.21875 48.921875 51.53125 44.890625 
Q 49.859375 40.875 45.40625 35.40625 
Q 44.1875 33.984375 37.640625 27.21875 
Q 31.109375 20.453125 19.1875 8.296875 
z
" id="DejaVuSans-50"/>
       </defs>
       <use xlink:href="#DejaVuSans-50"/>
       <use x="63.623047" xlink:href="#DejaVuSans-48"/>
       <use x="127.246094" xlink:href="#DejaVuSans-48"/>
       <use x="190.869141" xlink:href="#DejaVuSans-48"/>
      </g>
     </g>
    </g>
    <g id="xtick_5">
     <g id="line2d_5">
      <g>
       <use style="stroke:#000000;stroke-width:0.8;" x="507" xlink:href="#mfb3c17d44d" y="630"/>
      </g>
     </g>
     <g id="text_5">
      <!-- 2500 -->
      <g transform="translate(494.275 644.598438)scale(0.1 -0.1)">
       <use xlink:href="#DejaVuSans-50"/>
       <use x="63.623047" xlink:href="#DejaVuSans-53"/>
       <use x="127.246094" xlink:href="#DejaVuSans-48"/>
       <use x="190.869141" xlink:href="#DejaVuSans-48"/>
      </g>
     </g>
    </g>
    <g id="xtick_6">
     <g id="line2d_6">
      <g>
       <use style="stroke:#000000;stroke-width:0.8;" x="600" xlink:href="#mfb3c17d44d" y="630"/>
      </g>
     </g>
     <g id="text_6">
      <!-- 3000 -->
      <g transform="translate(587.275 644.598438)scale(0.1 -0.1)">
       <defs>
        <path d="M 40.578125 39.3125 
Q 47.65625 37.796875 51.625 33 
Q 55.609375 28.21875 55.609375 21.1875 
Q 55.609375 10.40625 48.1875 4.484375 
Q 40.765625 -1.421875 27.09375 -1.421875 
Q 22.515625 -1.421875 17.65625 -0.515625 
Q 12.796875 0.390625 7.625 2.203125 
L 7.625 11.71875 
Q 11.71875 9.328125 16.59375 8.109375 
Q 21.484375 6.890625 26.8125 6.890625 
Q 36.078125 6.890625 40.9375 10.546875 
Q 45.796875 14.203125 45.796875 21.1875 
Q 45.796875 27.640625 41.28125 31.265625 
Q 36.765625 34.90625 28.71875 34.90625 
L 20.21875 34.90625 
L 20.21875 43.015625 
L 29.109375 43.015625 
Q 36.375 43.015625 40.234375 45.921875 
Q 44.09375 48.828125 44.09375 54.296875 
Q 44.09375 59.90625 40.109375 62.90625 
Q 36.140625 65.921875 28.71875 65.921875 
Q 24.65625 65.921875 20.015625 65.03125 
Q 15.375 64.15625 9.8125 62.3125 
L 9.8125 71.09375 
Q 15.4375 72.65625 20.34375 73.4375 
Q 25.25 74.21875 29.59375 74.21875 
Q 40.828125 74.21875 47.359375 69.109375 
Q 53.90625 64.015625 53.90625 55.328125 
Q 53.90625 49.265625 50.4375 45.09375 
Q 46.96875 40.921875 40.578125 39.3125 
z
" id="DejaVuSans-51"/>
       </defs>
       <use xlink:href="#DejaVuSans-51"/>
       <use x="63.623047" xlink:href="#DejaVuSans-48"/>
       <use x="127.246094" xlink:href="#DejaVuSans-48"/>
       <use x="190.869141" xlink:href="#DejaVuSans-48"/>
      </g>
     </g>
    </g>
    <g id="xtick_7">
     <g id="line2d_7">
      <g>
       <use style="stroke:#000000;stroke-width:0.8;" x="693" xlink:href="#mfb3c17d44d" y="630"/>
      </g>
     </g>
     <g id="text_7">
      <!-- 3500 -->
      <g transform="translate(680.275 644.598438)scale(0.1 -0.1)">
       <use xlink:href="#DejaVuSans-51"/>
       <use x="63.623047" xlink:href="#DejaVuSans-53"/>
       <use x="127.246094" xlink:href="#DejaVuSans-48"/>
       <use x="190.869141" xlink:href="#DejaVuSans-48"/>
      </g>
     </g>
    </g>
    <g id="xtick_8">
     <g id="line2d_8">
      <g>
       <use style="stroke:#000000;stroke-width:0.8;" x="786" xlink:href="#mfb3c17d44d" y="630"/>
      </g>
     </g>
     <g id="text_8">
      <!-- 4000 -->
      <g transform="translate(773.275 644.598438)scale(0.1 -0.1)">
       <defs>
        <path d="M 37.796875 64.3125 
L 12.890625 25.390625 
L 37.796875 25.390625 
z
M 35.203125 72.90625 
L 47.609375 72.90625 
L 47.609375 25.390625 
L 58.015625 25.390625 
L 58.015625 17.1875 
L 47.609375 17.1875 
L 47.609375 0 
L 37.796875 0 
L 37.796875 17.1875 
L 4.890625 17.1875 
L 4.890625 26.703125 
z
" id="DejaVuSans-52"/>
       </defs>
       <use xlink:href="#DejaVuSans-52"/>
       <use x="63.623047" xlink:href="#DejaVuSans-48"/>
       <use x="127.246094" xlink:href="#DejaVuSans-48"/>
       <use x="190.869141" xlink:href="#DejaVuSans-48"/>
      </g>
     </g>
    </g>
    <g id="xtick_9">
     <g id="line2d_9">
      <g>
       <use style="stroke:#000000;stroke-width:0.8;" x="879" xlink:href="#mfb3c17d44d" y="630"/>
      </g>
     </g>
     <g id="text_9">
      <!-- 4500 -->
      <g transform="translate(866.275 644.598438)scale(0.1 -0.1)">
       <use xlink:href="#DejaVuSans-52"/>
       <use x="63.623047" xlink:href="#DejaVuSans-53"/>
       <use x="127.246094" xlink:href="#DejaVuSans-48"/>
       <use x="190.869141" xlink:href="#DejaVuSans-48"/>
      </g>
     </g>
    </g>
    <g id="xtick_10">
     <g id="line2d_10">
      <g>
       <use style="stroke:#000000;stroke-width:0.8;" x="972" xlink:href="#mfb3c17d44d" y="630"/>
      </g>
     </g>
     <g id="text_10">
      <!-- 5000 -->
      <g transform="translate(959.275 644.598438)scale(0.1 -0.1)">
       <use xlink:href="#DejaVuSans-53"/>
       <use x="63.623047" xlink:href="#DejaVuSans-48"/>
       <use x="127.246094" xlink:href="#DejaVuSans-48"/>
       <use x="190.869141" xlink:href="#DejaVuSans-48"/>
      </g>
     </g>
    </g>
    <g id="text_11">
     <!-- Energy [keV] -->
     <g transform="translate(521.292187 658.276562)scale(0.1 -0.1)">
      <defs>
       <path d="M 9.8125 72.90625 
L 55.90625 72.90625 
L 55.90625 64.59375 
L 19.671875 64.59375 
L 19.671875 43.015625 
L 54.390625 43.015625 
L 54.390625 34.71875 
L 19.671875 34.71875 
L 19.671875 8.296875 
L 56.78125 8.296875 
L 56.78125 0 
L 9.8125 0 
z
" id="DejaVuSans-69"/>
       <path d="M 54.890625 33.015625 
L 54.890625 0 
L 45.90625 0 
L 45.90625 32.71875 
Q 45.90625 40.484375 42.875 44.328125 
Q 39.84375 48.1875 33.796875 48.1875 
Q 26.515625 48.1875 22.3125 43.546875 
Q 18.109375 38.921875 18.109375 30.90625 
L 18.109375 0 
L 9.078125 0 
L 9.078125 54.6875 
L 18.109375 54.6875 
L 18.109375 46.1875 
Q 21.34375 51.125 25.703125 53.5625 
Q 30.078125 56 35.796875 56 
Q 45.21875 56 50.046875 50.171875 
Q 54.890625 44.34375 54.890625 33.015625 
z
" id="DejaVuSans-110"/>
       <path d="M 56.203125 29.59375 
L 56.203125 25.203125 
L 14.890625 25.203125 
Q 15.484375 15.921875 20.484375 11.0625 
Q 25.484375 6.203125 34.421875 6.203125 
Q 39.59375 6.203125 44.453125 7.46875 
Q 49.3125 8.734375 54.109375 11.28125 
L 54.109375 2.78125 
Q 49.265625 0.734375 44.1875 -0.34375 
Q 39.109375 -1.421875 33.890625 -1.421875 
Q 20.796875 -1.421875 13.15625 6.1875 
Q 5.515625 13.8125 5.515625 26.8125 
Q 5.515625 40.234375 12.765625 48.109375 
Q 20.015625 56 32.328125 56 
Q 43.359375 56 49.78125 48.890625 
Q 56.203125 41.796875 56.203125 29.59375 
z
M 47.21875 32.234375 
Q 47.125 39.59375 43.09375 43.984375 
Q 39.0625 48.390625 32.421875 48.390625 
Q 24.90625 48.390625 20.390625 44.140625 
Q 15.875 39.890625 15.1875 32.171875 
z
" id="DejaVuSans-101"/>
       <path d="M 41.109375 46.296875 
Q 39.59375 47.171875 37.8125 47.578125 
Q 36.03125 48 33.890625 48 
Q 26.265625 48 22.1875 43.046875 
Q 18.109375 38.09375 18.109375 28.8125 
L 18.109375 0 
L 9.078125 0 
L 9.078125 54.6875 
L 18.109375 54.6875 
L 18.109375 46.1875 
Q 20.953125 51.171875 25.484375 53.578125 
Q 30.03125 56 36.53125 56 
Q 37.453125 56 38.578125 55.875 
Q 39.703125 55.765625 41.0625 55.515625 
z
" id="DejaVuSans-114"/>
       <path d="M 45.40625 27.984375 
Q 45.40625 37.75 41.375 43.109375 
Q 37.359375 48.484375 30.078125 48.484375 
Q 22.859375 48.484375 18.828125 43.109375 
Q 14.796875 37.75 14.796875 27.984375 
Q 14.796875 18.265625 18.828125 12.890625 
Q 22.859375 7.515625 30.078125 7.515625 
Q 37.359375 7.515625 41.375 12.890625 
Q 45.40625 18.265625 45.40625 27.984375 
z
M 54.390625 6.78125 
Q 54.390625 -7.171875 48.1875 -13.984375 
Q 42 -20.796875 29.203125 -20.796875 
Q 24.46875 -20.796875 20.265625 -20.09375 
Q 16.0625 -19.390625 12.109375 -17.921875 
L 12.109375 -9.1875 
Q 16.0625 -11.328125 19.921875 -12.34375 
Q 23.78125 -13.375 27.78125 -13.375 
Q 36.625 -13.375 41.015625 -8.765625 
Q 45.40625 -4.15625 45.40625 5.171875 
L 45.40625 9.625 
Q 42.625 4.78125 38.28125 2.390625 
Q 33.9375 0 27.875 0 
Q 17.828125 0 11.671875 7.65625 
Q 5.515625 15.328125 5.515625 27.984375 
Q 5.515625 40.671875 11.671875 48.328125 
Q 17.828125 56 27.875 56 
Q 33.9375 56 38.28125 53.609375 
Q 42.625 51.21875 45.40625 46.390625 
L 45.40625 54.6875 
L 54.390625 54.6875 
z
" id="DejaVuSans-103"/>
       <path d="M 32.171875 -5.078125 
Q 28.375 -14.84375 24.75 -17.8125 
Q 21.140625 -20.796875 15.09375 -20.796875 
L 7.90625 -20.796875 
L 7.90625 -13.28125 
L 13.1875 -13.28125 
Q 16.890625 -13.28125 18.9375 -11.515625 
Q 21 -9.765625 23.484375 -3.21875 
L 25.09375 0.875 
L 2.984375 54.6875 
L 12.5 54.6875 
L 29.59375 11.921875 
L 46.6875 54.6875 
L 56.203125 54.6875 
z
" id="DejaVuSans-121"/>
       <path id="DejaVuSans-32"/>
       <path d="M 8.59375 75.984375 
L 29.296875 75.984375 
L 29.296875 69 
L 17.578125 69 
L 17.578125 -6.203125 
L 29.296875 -6.203125 
L 29.296875 -13.1875 
L 8.59375 -13.1875 
z
" id="DejaVuSans-91"/>
       <path d="M 9.078125 75.984375 
L 18.109375 75.984375 
L 18.109375 31.109375 
L 44.921875 54.6875 
L 56.390625 54.6875 
L 27.390625 29.109375 
L 57.625 0 
L 45.90625 0 
L 18.109375 26.703125 
L 18.109375 0 
L 9.078125 0 
z
" id="DejaVuSans-107"/>
       <path d="M 28.609375 0 
L 0.78125 72.90625 
L 11.078125 72.90625 
L 34.1875 11.53125 
L 57.328125 72.90625 
L 67.578125 72.90625 
L 39.796875 0 
z
" id="DejaVuSans-86"/>
       <path d="M 30.421875 75.984375 
L 30.421875 -13.1875 
L 9.71875 -13.1875 
L 9.71875 -6.203125 
L 21.390625 -6.203125 
L 21.390625 69 
L 9.71875 69 
L 9.71875 75.984375 
z
" id="DejaVuSans-93"/>
      </defs>
      <use xlink:href="#DejaVuSans-69"/>
      <use x="63.183594" xlink:href="#DejaVuSans-110"/>
      <use x="126.5625" xlink:href="#DejaVuSans-101"/>
      <use x="188.085938" xlink:href="#DejaVuSans-114"/>
      <use x="227.449219" xlink:href="#DejaVuSans-103"/>
      <use x="290.925781" xlink:href="#DejaVuSans-121"/>
      <use x="350.105469" xlink:href="#DejaVuSans-32"/>
      <use x="381.892578" xlink:href="#DejaVuSans-91"/>
      <use x="420.90625" xlink:href="#DejaVuSans-107"/>
      <use x="475.191406" xlink:href="#DejaVuSans-101"/>
      <use x="536.714844" xlink:href="#DejaVuSans-86"/>
      <use x="605.123047" xlink:href="#DejaVuSans-93"/>
     </g>
    </g>
   </g>
   <g id="matplotlib.axis_2">
    <g id="ytick_1">
     <g id="line2d_11">
      <defs>
       <path d="M 0 0 
L -3.5 0 
" id="m2663fe7f40" style="stroke:#000000;stroke-width:0.8;"/>
      </defs>
      <g>
       <use style="stroke:#000000;stroke-width:0.8;" x="135" xlink:href="#m2663fe7f40" y="605.290909"/>
      </g>
     </g>
     <g id="text_12">
      <!-- 0 -->
      <g transform="translate(121.6375 609.090128)scale(0.1 -0.1)">
       <use xlink:href="#DejaVuSans-48"/>
      </g>
     </g>
    </g>
    <g id="ytick_2">
     <g id="line2d_12">
      <g>
       <use style="stroke:#000000;stroke-width:0.8;" x="135" xlink:href="#m2663fe7f40" y="533.042105"/>
      </g>
     </g>
     <g id="text_13">
      <!-- 25 -->
      <g transform="translate(115.275 536.841324)scale(0.1 -0.1)">
       <use xlink:href="#DejaVuSans-50"/>
       <use x="63.623047" xlink:href="#DejaVuSans-53"/>
      </g>
     </g>
    </g>
    <g id="ytick_3">
     <g id="line2d_13">
      <g>
       <use style="stroke:#000000;stroke-width:0.8;" x="135" xlink:href="#m2663fe7f40" y="460.793301"/>
      </g>
     </g>
     <g id="text_14">
      <!-- 50 -->
      <g transform="translate(115.275 464.59252)scale(0.1 -0.1)">
       <use xlink:href="#DejaVuSans-53"/>
       <use x="63.623047" xlink:href="#DejaVuSans-48"/>
      </g>
     </g>
    </g>
    <g id="ytick_4">
     <g id="line2d_14">
      <g>
       <use style="stroke:#000000;stroke-width:0.8;" x="135" xlink:href="#m2663fe7f40" y="388.544498"/>
      </g>
     </g>
     <g id="text_15">
      <!-- 75 -->
      <g transform="translate(115.275 392.343716)scale(0.1 -0.1)">
       <defs>
        <path d="M 8.203125 72.90625 
L 55.078125 72.90625 
L 55.078125 68.703125 
L 28.609375 0 
L 18.3125 0 
L 43.21875 64.59375 
L 8.203125 64.59375 
z
" id="DejaVuSans-55"/>
       </defs>
       <use xlink:href="#DejaVuSans-55"/>
       <use x="63.623047" xlink:href="#DejaVuSans-53"/>
      </g>
     </g>
    </g>
    <g id="ytick_5">
     <g id="line2d_15">
      <g>
       <use style="stroke:#000000;stroke-width:0.8;" x="135" xlink:href="#m2663fe7f40" y="316.295694"/>
      </g>
     </g>
     <g id="text_16">
      <!-- 100 -->
      <g transform="translate(108.9125 320.094913)scale(0.1 -0.1)">
       <use xlink:href="#DejaVuSans-49"/>
       <use x="63.623047" xlink:href="#DejaVuSans-48"/>
       <use x="127.246094" xlink:href="#DejaVuSans-48"/>
      </g>
     </g>
    </g>
    <g id="ytick_6">
     <g id="line2d_16">
      <g>
       <use style="stroke:#000000;stroke-width:0.8;" x="135" xlink:href="#m2663fe7f40" y="244.04689"/>
      </g>
     </g>
     <g id="text_17">
      <!-- 125 -->
      <g transform="translate(108.9125 247.846109)scale(0.1 -0.1)">
       <use xlink:href="#DejaVuSans-49"/>
       <use x="63.623047" xlink:href="#DejaVuSans-50"/>
       <use x="127.246094" xlink:href="#DejaVuSans-53"/>
      </g>
     </g>
    </g>
    <g id="ytick_7">
     <g id="line2d_17">
      <g>
       <use style="stroke:#000000;stroke-width:0.8;" x="135" xlink:href="#m2663fe7f40" y="171.798086"/>
      </g>
     </g>
     <g id="text_18">
      <!-- 150 -->
      <g transform="translate(108.9125 175.597305)scale(0.1 -0.1)">
       <use xlink:href="#DejaVuSans-49"/>
       <use x="63.623047" xlink:href="#DejaVuSans-53"/>
       <use x="127.246094" xlink:href="#DejaVuSans-48"/>
      </g>
     </g>
    </g>
    <g id="ytick_8">
     <g id="line2d_18">
      <g>
       <use style="stroke:#000000;stroke-width:0.8;" x="135" xlink:href="#m2663fe7f40" y="99.549282"/>
      </g>
     </g>
     <g id="text_19">
      <!-- 175 -->
      <g transform="translate(108.9125 103.348501)scale(0.1 -0.1)">
       <use xlink:href="#DejaVuSans-49"/>
       <use x="63.623047" xlink:href="#DejaVuSans-55"/>
       <use x="127.246094" xlink:href="#DejaVuSans-53"/>
      </g>
     </g>
    </g>
    <g id="text_20">
     <!-- Count -->
     <g transform="translate(102.832812 373.048437)rotate(-90)scale(0.1 -0.1)">
      <defs>
       <path d="M 64.40625 67.28125 
L 64.40625 56.890625 
Q 59.421875 61.53125 53.78125 63.8125 
Q 48.140625 66.109375 41.796875 66.109375 
Q 29.296875 66.109375 22.65625 58.46875 
Q 16.015625 50.828125 16.015625 36.375 
Q 16.015625 21.96875 22.65625 14.328125 
Q 29.296875 6.6875 41.796875 6.6875 
Q 48.140625 6.6875 53.78125 8.984375 
Q 59.421875 11.28125 64.40625 15.921875 
L 64.40625 5.609375 
Q 59.234375 2.09375 53.4375 0.328125 
Q 47.65625 -1.421875 41.21875 -1.421875 
Q 24.65625 -1.421875 15.125 8.703125 
Q 5.609375 18.84375 5.609375 36.375 
Q 5.609375 53.953125 15.125 64.078125 
Q 24.65625 74.21875 41.21875 74.21875 
Q 47.75 74.21875 53.53125 72.484375 
Q 59.328125 70.75 64.40625 67.28125 
z
" id="DejaVuSans-67"/>
       <path d="M 30.609375 48.390625 
Q 23.390625 48.390625 19.1875 42.75 
Q 14.984375 37.109375 14.984375 27.296875 
Q 14.984375 17.484375 19.15625 11.84375 
Q 23.34375 6.203125 30.609375 6.203125 
Q 37.796875 6.203125 41.984375 11.859375 
Q 46.1875 17.53125 46.1875 27.296875 
Q 46.1875 37.015625 41.984375 42.703125 
Q 37.796875 48.390625 30.609375 48.390625 
z
M 30.609375 56 
Q 42.328125 56 49.015625 48.375 
Q 55.71875 40.765625 55.71875 27.296875 
Q 55.71875 13.875 49.015625 6.21875 
Q 42.328125 -1.421875 30.609375 -1.421875 
Q 18.84375 -1.421875 12.171875 6.21875 
Q 5.515625 13.875 5.515625 27.296875 
Q 5.515625 40.765625 12.171875 48.375 
Q 18.84375 56 30.609375 56 
z
" id="DejaVuSans-111"/>
       <path d="M 8.5 21.578125 
L 8.5 54.6875 
L 17.484375 54.6875 
L 17.484375 21.921875 
Q 17.484375 14.15625 20.5 10.265625 
Q 23.53125 6.390625 29.59375 6.390625 
Q 36.859375 6.390625 41.078125 11.03125 
Q 45.3125 15.671875 45.3125 23.6875 
L 45.3125 54.6875 
L 54.296875 54.6875 
L 54.296875 0 
L 45.3125 0 
L 45.3125 8.40625 
Q 42.046875 3.421875 37.71875 1 
Q 33.40625 -1.421875 27.6875 -1.421875 
Q 18.265625 -1.421875 13.375 4.4375 
Q 8.5 10.296875 8.5 21.578125 
z
M 31.109375 56 
z
" id="DejaVuSans-117"/>
       <path d="M 18.3125 70.21875 
L 18.3125 54.6875 
L 36.8125 54.6875 
L 36.8125 47.703125 
L 18.3125 47.703125 
L 18.3125 18.015625 
Q 18.3125 11.328125 20.140625 9.421875 
Q 21.96875 7.515625 27.59375 7.515625 
L 36.8125 7.515625 
L 36.8125 0 
L 27.59375 0 
Q 17.1875 0 13.234375 3.875 
Q 9.28125 7.765625 9.28125 18.015625 
L 9.28125 47.703125 
L 2.6875 47.703125 
L 2.6875 54.6875 
L 9.28125 54.6875 
L 9.28125 70.21875 
z
" id="DejaVuSans-116"/>
      </defs>
      <use xlink:href="#DejaVuSans-67"/>
      <use x="69.824219" xlink:href="#DejaVuSans-111"/>
      <use x="131.005859" xlink:href="#DejaVuSans-117"/>
      <use x="194.384766" xlink:href="#DejaVuSans-110"/>
      <use x="257.763672" xlink:href="#DejaVuSans-116"/>
     </g>
    </g>
   </g>
   <g id="line2d_19">
    <path clip-path="url(#p9c0183315e)" d="M 134.757162 605.290909 
L 140.599093 605.290909 
L 140.85309 599.511005 
L 141.361084 605.290909 
L 142.885066 605.290909 
L 143.139063 602.400957 
L 143.39306 602.400957 
L 143.647057 596.621053 
L 143.901054 602.400957 
L 144.155051 582.171292 
L 144.409048 587.951196 
L 144.917042 553.27177 
L 145.171039 559.051675 
L 145.425036 559.051675 
L 145.679033 512.81244 
L 145.93303 527.262201 
L 146.187027 466.573206 
L 146.441024 466.573206 
L 146.695021 405.884211 
L 146.949018 405.884211 
L 147.203014 402.994258 
L 147.457011 371.204785 
L 147.711008 365.42488 
L 147.965005 345.195215 
L 148.219002 388.544498 
L 148.472999 371.204785 
L 148.726996 327.855502 
L 149.23499 420.333971 
L 149.488987 379.874641 
L 149.742984 449.233493 
L 150.250978 492.582775 
L 150.504975 512.81244 
L 150.758972 550.381818 
L 151.012969 547.491866 
L 151.266966 533.042105 
L 151.520963 576.391388 
L 151.77496 582.171292 
L 152.028957 582.171292 
L 152.282954 599.511005 
L 152.536951 587.951196 
L 152.790948 602.400957 
L 153.298942 602.400957 
L 153.552939 605.290909 
L 153.806936 602.400957 
L 154.060933 602.400957 
L 154.31493 605.290909 
L 161.426846 605.290909 
L 161.680843 602.400957 
L 161.93484 605.290909 
L 183.77858 605.290909 
L 184.032577 602.400957 
L 184.286574 605.290909 
L 196.478429 605.290909 
L 196.732426 602.400957 
L 196.986423 605.290909 
L 237.117947 605.290909 
L 237.371944 602.400957 
L 237.625941 605.290909 
L 237.879938 602.400957 
L 238.133935 605.290909 
L 238.895926 605.290909 
L 239.149923 602.400957 
L 239.40392 605.290909 
L 239.657917 602.400957 
L 239.911914 605.290909 
L 240.673904 605.290909 
L 240.927901 602.400957 
L 241.181898 605.290909 
L 241.435895 602.400957 
L 241.689892 605.290909 
L 241.943889 605.290909 
L 242.197886 602.400957 
L 242.451883 605.290909 
L 242.70588 602.400957 
L 242.959877 605.290909 
L 244.229862 605.290909 
L 244.483859 602.400957 
L 244.737856 605.290909 
L 245.24585 605.290909 
L 245.499847 602.400957 
L 245.753844 605.290909 
L 246.769832 605.290909 
L 247.023829 602.400957 
L 247.277826 605.290909 
L 249.309802 605.290909 
L 249.563799 602.400957 
L 249.817796 605.290909 
L 250.071793 605.290909 
L 250.32579 602.400957 
L 250.579787 602.400957 
L 250.833784 605.290909 
L 251.087781 605.290909 
L 251.341778 599.511005 
L 251.595775 605.290909 
L 251.849772 593.7311 
L 252.103769 602.400957 
L 252.357766 602.400957 
L 252.611763 605.290909 
L 252.86576 599.511005 
L 253.119757 602.400957 
L 253.627751 602.400957 
L 253.881748 605.290909 
L 254.135745 599.511005 
L 254.389742 602.400957 
L 254.643739 602.400957 
L 254.897736 596.621053 
L 255.151733 599.511005 
L 255.40573 593.7311 
L 255.659727 599.511005 
L 255.913724 599.511005 
L 256.167721 596.621053 
L 256.421717 599.511005 
L 256.675714 599.511005 
L 256.929711 605.290909 
L 257.437705 599.511005 
L 257.691702 605.290909 
L 257.945699 599.511005 
L 258.199696 602.400957 
L 258.453693 599.511005 
L 258.70769 599.511005 
L 258.961687 602.400957 
L 259.215684 602.400957 
L 259.469681 599.511005 
L 259.977675 599.511005 
L 260.231672 605.290909 
L 260.739666 599.511005 
L 260.993663 605.290909 
L 261.24766 602.400957 
L 261.501657 605.290909 
L 261.755654 605.290909 
L 262.009651 599.511005 
L 262.263648 605.290909 
L 262.517645 602.400957 
L 262.771642 605.290909 
L 263.025639 605.290909 
L 263.279636 602.400957 
L 263.533633 602.400957 
L 263.78763 605.290909 
L 264.041627 605.290909 
L 264.295624 602.400957 
L 264.549621 602.400957 
L 264.803618 605.290909 
L 972.185218 605.290909 
L 972.185218 605.290909 
" style="fill:none;stroke:#1f77b4;stroke-linecap:square;stroke-width:1.5;"/>
   </g>
   <g id="line2d_20">
    <path clip-path="url(#p9c0183315e)" d="M 134.757162 605.290909 
L 152.790948 605.290909 
L 153.044945 602.400957 
L 153.298942 605.290909 
L 165.490797 605.290909 
L 165.744794 602.400957 
L 165.998791 605.290909 
L 179.460631 605.290909 
L 179.714628 602.400957 
L 179.968625 605.290909 
L 181.746604 605.290909 
L 182.000601 602.400957 
L 182.254598 605.290909 
L 182.508595 605.290909 
L 182.762592 602.400957 
L 183.016589 605.290909 
L 184.286574 605.290909 
L 184.540571 602.400957 
L 184.794568 605.290909 
L 192.160481 605.290909 
L 192.414478 602.400957 
L 192.668475 605.290909 
L 209.940269 605.290909 
L 210.194266 602.400957 
L 210.448263 605.290909 
L 214.512215 605.290909 
L 214.766212 602.400957 
L 215.020209 605.290909 
L 223.148113 605.290909 
L 223.40211 602.400957 
L 223.656107 605.290909 
L 224.672095 605.290909 
L 224.926092 602.400957 
L 225.180088 605.290909 
L 238.641929 605.290909 
L 238.895926 602.400957 
L 239.149923 605.290909 
L 243.975865 605.290909 
L 244.229862 602.400957 
L 244.483859 605.290909 
L 244.991853 605.290909 
L 245.24585 602.400957 
L 245.499847 605.290909 
L 250.833784 605.290909 
L 251.087781 602.400957 
L 251.341778 605.290909 
L 261.755654 605.290909 
L 262.009651 602.400957 
L 262.263648 605.290909 
L 272.931521 605.290909 
L 273.185518 602.400957 
L 273.439515 605.290909 
L 279.535443 605.290909 
L 279.78944 602.400957 
L 280.043437 605.290909 
L 299.855202 605.290909 
L 300.109199 602.400957 
L 300.363196 605.290909 
L 302.903166 605.290909 
L 303.157162 602.400957 
L 303.411159 605.290909 
L 305.443135 605.290909 
L 305.697132 602.400957 
L 305.951129 605.290909 
L 306.71312 605.290909 
L 306.967117 602.400957 
L 307.221114 605.290909 
L 317.888988 605.290909 
L 318.142985 602.400957 
L 318.396982 605.290909 
L 333.128807 605.290909 
L 333.382804 602.400957 
L 333.636801 605.290909 
L 336.684764 605.290909 
L 336.938761 602.400957 
L 337.192758 605.290909 
L 341.25671 605.290909 
L 341.510707 602.400957 
L 341.764704 605.290909 
L 344.812668 605.290909 
L 345.066665 602.400957 
L 345.320662 605.290909 
L 357.766514 605.290909 
L 358.020511 602.400957 
L 358.274508 605.290909 
L 366.402411 605.290909 
L 366.656408 602.400957 
L 366.910405 605.290909 
L 367.926393 605.290909 
L 368.18039 602.400957 
L 368.434387 605.290909 
L 370.212366 605.290909 
L 370.466363 602.400957 
L 370.72036 602.400957 
L 370.974357 605.290909 
L 371.482351 605.290909 
L 371.736348 602.400957 
L 371.990345 605.290909 
L 372.244342 605.290909 
L 372.498339 599.511005 
L 373.006333 605.290909 
L 373.26033 596.621053 
L 373.514327 599.511005 
L 374.022321 593.7311 
L 374.276318 585.061244 
L 374.530315 582.171292 
L 374.784312 582.171292 
L 375.038309 579.28134 
L 375.292306 550.381818 
L 375.546303 544.601914 
L 375.8003 521.482297 
L 376.054297 530.152153 
L 376.308294 483.912919 
L 376.562291 466.573206 
L 376.816288 411.664115 
L 377.070285 417.444019 
L 377.324282 359.644976 
L 377.578279 388.544498 
L 377.832276 345.195215 
L 378.086273 330.745455 
L 378.34027 287.396172 
L 378.594267 267.166507 
L 378.848264 287.396172 
L 379.102261 264.276555 
L 379.356258 298.955981 
L 379.610255 261.386603 
L 379.864252 278.726316 
L 380.118249 348.085167 
L 380.372246 322.075598 
L 380.88024 388.544498 
L 381.134236 478.133014 
L 381.388233 463.683254 
L 381.64223 504.142584 
L 381.896227 521.482297 
L 382.150224 504.142584 
L 382.404221 556.161722 
L 382.658218 544.601914 
L 383.166212 590.841148 
L 383.674206 579.28134 
L 383.928203 602.400957 
L 384.1822 596.621053 
L 384.436197 605.290909 
L 384.690194 599.511005 
L 384.944191 605.290909 
L 385.198188 602.400957 
L 385.452185 605.290909 
L 972.185218 605.290909 
L 972.185218 605.290909 
" style="fill:none;stroke:#ff7f0e;stroke-linecap:square;stroke-width:1.5;"/>
   </g>
   <g id="line2d_21">
    <path clip-path="url(#p9c0183315e)" d="M 134.757162 605.290909 
L 157.108897 605.290909 
L 157.362894 602.400957 
L 157.616891 605.290909 
L 157.870888 602.400957 
L 158.124885 605.290909 
L 158.886876 605.290909 
L 159.140873 602.400957 
L 159.39487 605.290909 
L 160.410858 605.290909 
L 160.664855 602.400957 
L 160.918852 602.400957 
L 161.172849 605.290909 
L 161.426846 602.400957 
L 161.93484 602.400957 
L 162.188837 605.290909 
L 162.442834 599.511005 
L 162.69683 599.511005 
L 162.950827 605.290909 
L 163.204824 605.290909 
L 163.458821 602.400957 
L 163.712818 605.290909 
L 163.966815 605.290909 
L 164.220812 602.400957 
L 164.474809 605.290909 
L 164.982803 605.290909 
L 165.2368 602.400957 
L 165.490797 605.290909 
L 165.998791 605.290909 
L 166.252788 602.400957 
L 166.760782 602.400957 
L 167.014779 605.290909 
L 167.268776 605.290909 
L 167.522773 602.400957 
L 167.77677 605.290909 
L 168.284764 605.290909 
L 168.538761 602.400957 
L 168.792758 605.290909 
L 169.046755 602.400957 
L 169.300752 602.400957 
L 169.554749 605.290909 
L 172.85671 605.290909 
L 173.110707 602.400957 
L 173.364704 605.290909 
L 178.69864 605.290909 
L 178.952637 602.400957 
L 179.206634 605.290909 
L 183.77858 605.290909 
L 184.032577 602.400957 
L 184.286574 605.290909 
L 189.112517 605.290909 
L 189.366514 602.400957 
L 189.620511 605.290909 
L 190.128505 605.290909 
L 190.382502 602.400957 
L 190.636499 605.290909 
L 191.144493 605.290909 
L 191.39849 602.400957 
L 191.652487 605.290909 
L 196.986423 605.290909 
L 197.24042 602.400957 
L 197.494417 605.290909 
L 198.764402 605.290909 
L 199.018399 602.400957 
L 199.272396 605.290909 
L 228.482049 605.290909 
L 228.736046 602.400957 
L 228.990043 605.290909 
L 238.895926 605.290909 
L 239.149923 602.400957 
L 239.40392 605.290909 
L 240.165911 605.290909 
L 240.419908 602.400957 
L 240.673904 605.290909 
L 243.975865 605.290909 
L 244.229862 602.400957 
L 244.483859 605.290909 
L 244.991853 605.290909 
L 245.24585 602.400957 
L 245.499847 605.290909 
L 246.515835 605.290909 
L 246.769832 602.400957 
L 247.023829 605.290909 
L 251.595775 605.290909 
L 251.849772 602.400957 
L 252.103769 605.290909 
L 254.643739 605.290909 
L 254.897736 602.400957 
L 255.151733 605.290909 
L 257.691702 605.290909 
L 257.945699 602.400957 
L 258.199696 602.400957 
L 258.453693 605.290909 
L 264.295624 605.290909 
L 264.549621 602.400957 
L 264.803618 605.290909 
L 273.439515 605.290909 
L 273.693512 602.400957 
L 273.947509 605.290909 
L 275.725488 605.290909 
L 275.979485 602.400957 
L 276.233482 605.290909 
L 280.551431 605.290909 
L 280.805428 602.400957 
L 281.059425 605.290909 
L 281.821416 605.290909 
L 282.075413 602.400957 
L 282.583407 602.400957 
L 282.837404 605.290909 
L 283.091401 602.400957 
L 283.599395 602.400957 
L 283.853392 605.290909 
L 284.107389 605.290909 
L 284.615383 599.511005 
L 285.123377 605.290909 
L 285.377374 602.400957 
L 285.631371 602.400957 
L 285.885368 596.621053 
L 286.139365 605.290909 
L 286.393362 605.290909 
L 286.647359 602.400957 
L 286.901356 602.400957 
L 287.155353 605.290909 
L 287.663346 599.511005 
L 287.917343 602.400957 
L 288.425337 585.061244 
L 288.679334 590.841148 
L 288.933331 582.171292 
L 289.187328 596.621053 
L 289.695322 576.391388 
L 289.949319 582.171292 
L 290.203316 564.831579 
L 290.457313 576.391388 
L 290.71131 570.611483 
L 290.965307 527.262201 
L 291.219304 559.051675 
L 291.473301 521.482297 
L 291.981295 509.922488 
L 292.235292 501.252632 
L 292.489289 524.372249 
L 292.743286 457.903349 
L 293.25128 423.223923 
L 293.505277 446.343541 
L 294.013271 330.745455 
L 294.267268 400.104306 
L 294.521265 402.994258 
L 294.775262 394.324402 
L 295.029259 402.994258 
L 295.283256 327.855502 
L 295.537253 333.635407 
L 295.79125 362.534928 
L 296.045247 414.554067 
L 296.299244 353.865072 
L 296.553241 359.644976 
L 296.807238 394.324402 
L 297.061235 301.845933 
L 297.569229 388.544498 
L 297.823226 368.314833 
L 298.077223 376.984689 
L 298.33122 394.324402 
L 298.585217 382.764593 
L 298.839214 376.984689 
L 299.093211 368.314833 
L 299.347208 371.204785 
L 299.855202 440.563636 
L 300.109199 382.764593 
L 300.617193 486.802871 
L 300.87119 455.013397 
L 301.125187 443.453589 
L 301.379184 478.133014 
L 301.633181 481.022967 
L 301.887178 498.362679 
L 302.141175 507.032536 
L 302.395172 509.922488 
L 303.411159 570.611483 
L 303.665156 573.501435 
L 303.919153 582.171292 
L 304.17315 573.501435 
L 304.427147 590.841148 
L 304.681144 587.951196 
L 304.935141 579.28134 
L 305.189138 596.621053 
L 305.443135 596.621053 
L 305.951129 590.841148 
L 306.205126 599.511005 
L 306.459123 587.951196 
L 306.71312 590.841148 
L 306.967117 596.621053 
L 307.221114 590.841148 
L 307.475111 602.400957 
L 307.729108 602.400957 
L 307.983105 593.7311 
L 308.237102 602.400957 
L 308.491099 605.290909 
L 308.745096 596.621053 
L 308.999093 596.621053 
L 309.25309 602.400957 
L 309.507087 602.400957 
L 309.761084 605.290909 
L 310.015081 599.511005 
L 310.269078 605.290909 
L 310.523075 602.400957 
L 310.777072 605.290909 
L 311.285066 605.290909 
L 311.539063 602.400957 
L 311.79306 605.290909 
L 972.185218 605.290909 
L 972.185218 605.290909 
" style="fill:none;stroke:#2ca02c;stroke-linecap:square;stroke-width:1.5;"/>
   </g>
   <g id="line2d_22">
    <path clip-path="url(#p9c0183315e)" d="M 134.757162 605.290909 
L 157.108897 605.290909 
L 157.362894 602.400957 
L 157.616891 605.290909 
L 159.648867 605.290909 
L 159.902864 602.400957 
L 160.156861 605.290909 
L 161.426846 605.290909 
L 161.680843 602.400957 
L 161.93484 602.400957 
L 162.188837 605.290909 
L 163.458821 605.290909 
L 163.712818 602.400957 
L 163.966815 605.290909 
L 164.982803 605.290909 
L 165.2368 602.400957 
L 165.490797 602.400957 
L 165.744794 605.290909 
L 166.252788 605.290909 
L 166.506785 602.400957 
L 166.760782 602.400957 
L 167.014779 605.290909 
L 168.030767 605.290909 
L 168.284764 602.400957 
L 168.538761 605.290909 
L 168.792758 602.400957 
L 169.046755 605.290909 
L 169.554749 605.290909 
L 169.808746 602.400957 
L 170.062743 602.400957 
L 170.31674 605.290909 
L 171.332728 605.290909 
L 171.586725 602.400957 
L 171.840722 605.290909 
L 177.174659 605.290909 
L 177.428656 602.400957 
L 177.682653 605.290909 
L 177.93665 602.400957 
L 178.190647 605.290909 
L 178.444643 602.400957 
L 178.69864 605.290909 
L 186.572547 605.290909 
L 186.826544 602.400957 
L 187.080541 605.290909 
L 194.192456 605.290909 
L 194.446453 602.400957 
L 194.70045 605.290909 
L 224.164101 605.290909 
L 224.418098 602.400957 
L 224.672095 605.290909 
L 237.625941 605.290909 
L 237.879938 602.400957 
L 238.133935 605.290909 
L 247.78582 605.290909 
L 248.039817 602.400957 
L 248.293814 605.290909 
L 256.675714 605.290909 
L 256.929711 602.400957 
L 257.183708 605.290909 
L 263.533633 605.290909 
L 263.78763 602.400957 
L 264.295624 602.400957 
L 264.549621 605.290909 
L 278.265458 605.290909 
L 278.519455 602.400957 
L 278.773452 605.290909 
L 285.631371 605.290909 
L 285.885368 602.400957 
L 286.139365 605.290909 
L 288.17134 605.290909 
L 288.425337 602.400957 
L 288.679334 605.290909 
L 289.949319 605.290909 
L 290.203316 602.400957 
L 290.457313 605.290909 
L 291.727298 605.290909 
L 291.981295 602.400957 
L 292.235292 605.290909 
L 292.489289 605.290909 
L 292.743286 602.400957 
L 292.997283 605.290909 
L 294.775262 605.290909 
L 295.283256 599.511005 
L 295.537253 605.290909 
L 295.79125 605.290909 
L 296.045247 599.511005 
L 296.299244 602.400957 
L 296.553241 599.511005 
L 296.807238 605.290909 
L 297.061235 599.511005 
L 297.315232 602.400957 
L 298.077223 602.400957 
L 298.33122 593.7311 
L 298.585217 599.511005 
L 299.093211 593.7311 
L 299.347208 602.400957 
L 299.601205 602.400957 
L 299.855202 596.621053 
L 300.109199 593.7311 
L 300.363196 596.621053 
L 300.617193 590.841148 
L 300.87119 599.511005 
L 301.125187 599.511005 
L 301.379184 590.841148 
L 301.633181 587.951196 
L 301.887178 579.28134 
L 302.141175 585.061244 
L 302.395172 564.831579 
L 302.649169 559.051675 
L 302.903166 559.051675 
L 303.157162 550.381818 
L 303.411159 518.592344 
L 303.665156 544.601914 
L 303.919153 475.243062 
L 304.17315 489.692823 
L 304.427147 481.022967 
L 304.681144 486.802871 
L 304.935141 486.802871 
L 305.189138 429.003828 
L 305.443135 397.214354 
L 305.697132 405.884211 
L 306.205126 345.195215 
L 306.459123 290.286124 
L 306.71312 272.946411 
L 307.221114 223.817225 
L 307.729108 275.836364 
L 307.983105 189.137799 
L 308.237102 267.166507 
L 308.491099 232.487081 
L 308.745096 301.845933 
L 308.999093 330.745455 
L 309.25309 313.405742 
L 309.507087 278.726316 
L 309.761084 322.075598 
L 310.015081 385.654545 
L 310.269078 420.333971 
L 310.523075 431.89378 
L 310.777072 507.032536 
L 311.031069 483.912919 
L 311.285066 527.262201 
L 311.539063 524.372249 
L 311.79306 550.381818 
L 312.047057 547.491866 
L 312.301054 579.28134 
L 312.555051 579.28134 
L 312.809048 567.721531 
L 313.571039 602.400957 
L 313.825036 599.511005 
L 314.079033 599.511005 
L 314.33303 602.400957 
L 314.587027 599.511005 
L 314.841024 599.511005 
L 315.095021 605.290909 
L 315.857012 605.290909 
L 316.111009 602.400957 
L 316.365006 605.290909 
L 316.619003 602.400957 
L 316.873 605.290909 
L 317.126997 602.400957 
L 317.380994 605.290909 
L 318.904975 605.290909 
L 319.158972 602.400957 
L 319.412969 605.290909 
L 319.666966 605.290909 
L 319.920963 602.400957 
L 320.17496 605.290909 
L 972.185218 605.290909 
L 972.185218 605.290909 
" style="fill:none;stroke:#d62728;stroke-linecap:square;stroke-width:1.5;"/>
   </g>
   <g id="line2d_23">
    <path clip-path="url(#p9c0183315e)" d="M 134.757162 605.290909 
L 216.036197 605.290909 
L 216.290194 602.400957 
L 216.544191 605.290909 
L 217.052185 605.290909 
L 217.306182 602.400957 
L 217.560179 605.290909 
L 217.814176 605.290909 
L 218.068173 602.400957 
L 218.32217 605.290909 
L 224.926092 605.290909 
L 225.180088 602.400957 
L 225.434085 605.290909 
L 225.688082 602.400957 
L 225.942079 605.290909 
L 226.196076 605.290909 
L 226.450073 602.400957 
L 226.70407 605.290909 
L 230.514025 605.290909 
L 230.768022 602.400957 
L 231.022019 605.290909 
L 232.038007 605.290909 
L 232.292004 602.400957 
L 232.546001 605.290909 
L 238.895926 605.290909 
L 239.149923 602.400957 
L 239.40392 605.290909 
L 271.40754 605.290909 
L 271.661537 602.400957 
L 271.915533 605.290909 
L 342.272698 605.290909 
L 342.526695 602.400957 
L 342.780692 605.290909 
L 363.354448 605.290909 
L 363.608445 602.400957 
L 363.862442 605.290909 
L 372.498339 605.290909 
L 372.752336 602.400957 
L 373.006333 605.290909 
L 375.8003 605.290909 
L 376.054297 602.400957 
L 376.308294 605.290909 
L 383.928203 605.290909 
L 384.1822 602.400957 
L 384.436197 605.290909 
L 399.676016 605.290909 
L 399.930013 602.400957 
L 400.18401 605.290909 
L 401.961989 605.290909 
L 402.215986 602.400957 
L 402.469983 605.290909 
L 402.72398 602.400957 
L 402.977977 605.290909 
L 405.009953 605.290909 
L 405.26395 602.400957 
L 405.517947 605.290909 
L 406.533935 605.290909 
L 406.787932 602.400957 
L 407.041929 605.290909 
L 407.295926 599.511005 
L 407.549923 605.290909 
L 408.565911 605.290909 
L 408.819908 602.400957 
L 409.581899 602.400957 
L 409.835896 605.290909 
L 410.089893 599.511005 
L 410.34389 599.511005 
L 410.597887 602.400957 
L 410.851884 599.511005 
L 411.359878 599.511005 
L 411.613875 605.290909 
L 411.867872 602.400957 
L 412.121869 587.951196 
L 412.375865 587.951196 
L 412.629862 582.171292 
L 412.883859 587.951196 
L 413.391853 593.7311 
L 413.64585 576.391388 
L 414.153844 559.051675 
L 414.661838 524.372249 
L 414.915835 515.702392 
L 415.169832 524.372249 
L 415.423829 509.922488 
L 415.677826 414.554067 
L 415.931823 434.783732 
L 416.18582 391.43445 
L 416.439817 322.075598 
L 416.693814 301.845933 
L 416.947811 327.855502 
L 417.201808 246.936842 
L 417.455805 272.946411 
L 417.709802 220.927273 
L 417.963799 142.898565 
L 418.471793 223.817225 
L 418.72579 186.247847 
L 419.233784 212.257416 
L 419.741778 287.396172 
L 419.995775 376.984689 
L 420.249772 359.644976 
L 420.503769 434.783732 
L 420.757766 397.214354 
L 421.011763 437.673684 
L 421.26576 452.123445 
L 421.773754 541.711962 
L 422.027751 544.601914 
L 422.281748 573.501435 
L 422.535745 547.491866 
L 423.043739 587.951196 
L 423.297736 587.951196 
L 423.551733 593.7311 
L 424.059727 599.511005 
L 424.313724 596.621053 
L 424.567721 605.290909 
L 424.821718 599.511005 
L 425.075715 605.290909 
L 972.185218 605.290909 
L 972.185218 605.290909 
" style="fill:none;stroke:#9467bd;stroke-linecap:square;stroke-width:1.5;"/>
   </g>
   <g id="line2d_24">
    <path clip-path="url(#p9c0183315e)" d="M 134.757162 605.290909 
L 187.588535 605.290909 
L 187.842532 602.400957 
L 188.096529 605.290909 
L 247.78582 605.290909 
L 248.039817 602.400957 
L 248.293814 605.290909 
L 422.281748 605.290909 
L 422.535745 602.400957 
L 422.789742 605.290909 
L 466.477223 605.290909 
L 466.73122 602.400957 
L 466.985217 605.290909 
L 471.557163 605.290909 
L 471.81116 602.400957 
L 472.065157 605.290909 
L 559.948113 605.290909 
L 560.20211 602.400957 
L 560.456107 605.290909 
L 573.155956 605.290909 
L 573.409953 602.400957 
L 573.66395 605.290909 
L 585.855805 605.290909 
L 586.109802 602.400957 
L 586.363799 605.290909 
L 612.017495 605.290909 
L 612.271492 602.400957 
L 612.525489 605.290909 
L 645.545097 605.290909 
L 645.799094 602.400957 
L 646.053091 605.290909 
L 672.468777 605.290909 
L 672.722774 602.400957 
L 672.976771 605.290909 
L 725.300149 605.290909 
L 725.554146 602.400957 
L 725.808143 605.290909 
L 770.511613 605.290909 
L 770.76561 602.400957 
L 771.019606 605.290909 
L 841.630768 605.290909 
L 841.884765 602.400957 
L 842.138762 605.290909 
L 854.07662 605.290909 
L 854.330617 602.400957 
L 854.584614 605.290909 
L 864.2365 605.290909 
L 864.490497 602.400957 
L 864.744493 605.290909 
L 867.53846 605.290909 
L 867.792457 602.400957 
L 868.046454 605.290909 
L 874.396379 605.290909 
L 874.650376 602.400957 
L 874.904373 605.290909 
L 902.336047 605.290909 
L 902.590044 602.400957 
L 902.844041 605.290909 
L 903.860029 605.290909 
L 904.114026 602.400957 
L 904.368023 605.290909 
L 910.209954 605.290909 
L 910.463951 602.400957 
L 910.717948 605.290909 
L 913.257917 605.290909 
L 913.511914 602.400957 
L 914.019908 602.400957 
L 914.273905 605.290909 
L 914.527902 602.400957 
L 914.781899 605.290909 
L 915.035896 605.290909 
L 915.289893 599.511005 
L 915.54389 605.290909 
L 915.797887 605.290909 
L 916.051884 602.400957 
L 916.305881 593.7311 
L 916.559878 602.400957 
L 916.813875 602.400957 
L 917.067872 587.951196 
L 917.321869 596.621053 
L 917.575866 596.621053 
L 917.829863 590.841148 
L 918.08386 599.511005 
L 918.337857 590.841148 
L 918.591854 590.841148 
L 918.845851 599.511005 
L 919.099848 593.7311 
L 919.353845 585.061244 
L 919.607842 567.721531 
L 919.861839 582.171292 
L 920.115836 587.951196 
L 920.369833 582.171292 
L 920.62383 570.611483 
L 920.877827 553.27177 
L 921.131824 550.381818 
L 921.385821 550.381818 
L 922.147812 466.573206 
L 922.401809 489.692823 
L 922.655806 391.43445 
L 922.909803 402.994258 
L 923.1638 405.884211 
L 923.417797 313.405742 
L 923.671794 376.984689 
L 923.925791 304.735885 
L 924.179788 304.735885 
L 924.433785 171.798086 
L 924.687782 229.597129 
L 925.195776 183.357895 
L 925.449773 122.6689 
L 925.70377 192.027751 
L 925.957767 215.147368 
L 926.211764 111.109091 
L 926.465761 137.11866 
L 927.481748 293.176077 
L 927.735745 290.286124 
L 928.751733 469.463158 
L 929.00573 492.582775 
L 929.259727 478.133014 
L 929.513724 533.042105 
L 929.767721 547.491866 
L 930.021718 544.601914 
L 930.275715 553.27177 
L 930.783709 590.841148 
L 931.037706 579.28134 
L 931.291703 593.7311 
L 931.799697 605.290909 
L 932.053694 605.290909 
L 932.307691 602.400957 
L 932.561688 605.290909 
L 932.815685 602.400957 
L 933.069682 602.400957 
L 933.323679 605.290909 
L 933.577676 602.400957 
L 933.831673 605.290909 
L 934.847661 605.290909 
L 935.101658 602.400957 
L 935.355655 605.290909 
L 972.185218 605.290909 
L 972.185218 605.290909 
" style="fill:none;stroke:#8c564b;stroke-linecap:square;stroke-width:1.5;"/>
   </g>
   <g id="line2d_25">
    <path clip-path="url(#p9c0183315e)" d="M 134.757162 605.290909 
L 145.171039 605.290909 
L 145.425036 602.400957 
L 145.679033 605.290909 
L 166.506785 605.290909 
L 166.760782 602.400957 
L 167.014779 605.290909 
L 174.634689 605.290909 
L 174.888686 602.400957 
L 175.142683 605.290909 
L 217.560179 605.290909 
L 217.814176 602.400957 
L 218.068173 605.290909 
L 238.641929 605.290909 
L 238.895926 602.400957 
L 239.149923 605.290909 
L 240.927901 605.290909 
L 241.181898 602.400957 
L 241.435895 605.290909 
L 245.24585 605.290909 
L 245.499847 602.400957 
L 245.753844 605.290909 
L 252.103769 605.290909 
L 252.357766 602.400957 
L 252.611763 605.290909 
L 257.945699 605.290909 
L 258.199696 602.400957 
L 258.453693 605.290909 
L 259.469681 605.290909 
L 259.723678 602.400957 
L 259.977675 605.290909 
L 261.24766 605.290909 
L 261.501657 602.400957 
L 261.755654 605.290909 
L 268.86757 605.290909 
L 269.121567 602.400957 
L 269.375564 605.290909 
L 270.645549 605.290909 
L 270.899546 602.400957 
L 271.153543 605.290909 
L 272.931521 605.290909 
L 273.185518 602.400957 
L 273.439515 605.290909 
L 277.503467 605.290909 
L 277.757464 602.400957 
L 278.011461 605.290909 
L 305.697132 605.290909 
L 305.951129 602.400957 
L 306.205126 605.290909 
L 350.146604 605.290909 
L 350.400601 602.400957 
L 350.654598 605.290909 
L 355.480541 605.290909 
L 355.734538 602.400957 
L 355.988535 605.290909 
L 362.846454 605.290909 
L 363.100451 602.400957 
L 363.354448 605.290909 
L 374.276318 605.290909 
L 374.530315 602.400957 
L 374.784312 605.290909 
L 377.324282 605.290909 
L 377.578279 602.400957 
L 377.832276 605.290909 
L 382.912215 605.290909 
L 383.166212 602.400957 
L 383.420209 605.290909 
L 394.088083 605.290909 
L 394.34208 602.400957 
L 394.596077 605.290909 
L 396.120059 605.290909 
L 396.374056 602.400957 
L 396.628052 605.290909 
L 413.137856 605.290909 
L 413.391853 602.400957 
L 413.64585 605.290909 
L 437.775564 605.290909 
L 438.029561 602.400957 
L 438.283558 605.290909 
L 454.539365 605.290909 
L 454.793362 602.400957 
L 455.047359 605.290909 
L 476.891099 605.290909 
L 477.145096 602.400957 
L 477.399093 605.290909 
L 479.939063 605.290909 
L 480.19306 602.400957 
L 480.447057 605.290909 
L 480.701054 602.400957 
L 480.955051 605.290909 
L 487.304976 605.290909 
L 487.558973 602.400957 
L 487.81297 605.290909 
L 489.336952 605.290909 
L 489.590949 602.400957 
L 489.844946 605.290909 
L 491.876921 605.290909 
L 492.130918 602.400957 
L 492.384915 605.290909 
L 498.73484 605.290909 
L 498.988837 602.400957 
L 499.242834 605.290909 
L 500.258822 605.290909 
L 500.512819 602.400957 
L 500.766816 605.290909 
L 507.11674 605.290909 
L 507.370737 602.400957 
L 507.624734 605.290909 
L 521.594568 605.290909 
L 521.848565 602.400957 
L 522.102562 605.290909 
L 523.11855 605.290909 
L 523.372547 602.400957 
L 523.626544 605.290909 
L 530.992457 605.290909 
L 531.246454 602.400957 
L 531.500451 605.290909 
L 531.754448 605.290909 
L 532.008445 599.511005 
L 532.262442 605.290909 
L 533.532427 605.290909 
L 533.786424 602.400957 
L 534.040421 605.290909 
L 535.8184 605.290909 
L 536.072397 602.400957 
L 536.326394 605.290909 
L 536.834388 605.290909 
L 537.088384 602.400957 
L 537.342381 605.290909 
L 538.612366 605.290909 
L 538.866363 599.511005 
L 539.12036 605.290909 
L 539.628354 599.511005 
L 540.136348 605.290909 
L 540.390345 602.400957 
L 540.644342 605.290909 
L 540.898339 599.511005 
L 541.152336 590.841148 
L 541.406333 602.400957 
L 541.66033 593.7311 
L 541.914327 596.621053 
L 542.422321 590.841148 
L 542.676318 596.621053 
L 542.930315 573.501435 
L 543.184312 567.721531 
L 543.438309 556.161722 
L 543.692306 521.482297 
L 543.946303 518.592344 
L 544.2003 483.912919 
L 544.454297 469.463158 
L 544.708294 463.683254 
L 544.962291 382.764593 
L 545.216288 379.874641 
L 545.470285 365.42488 
L 545.724282 324.96555 
L 545.978279 333.635407 
L 546.232276 290.286124 
L 546.486273 278.726316 
L 546.74027 258.496651 
L 546.994267 209.367464 
L 547.502261 241.156938 
L 547.756258 310.515789 
L 548.010255 267.166507 
L 548.264252 365.42488 
L 548.518249 376.984689 
L 548.772246 342.305263 
L 549.026243 391.43445 
L 549.28024 478.133014 
L 549.534237 466.573206 
L 549.788234 541.711962 
L 550.042231 547.491866 
L 550.296228 547.491866 
L 551.312216 585.061244 
L 551.566213 605.290909 
L 551.82021 605.290909 
L 552.074207 596.621053 
L 552.328204 602.400957 
L 552.582201 599.511005 
L 552.836197 605.290909 
L 553.090194 602.400957 
L 553.344191 605.290909 
L 972.185218 605.290909 
L 972.185218 605.290909 
" style="fill:none;stroke:#e377c2;stroke-linecap:square;stroke-width:1.5;"/>
   </g>
   <g id="patch_3">
    <path d="M 135 630 
L 135 86.4 
" style="fill:none;stroke:#000000;stroke-linecap:square;stroke-linejoin:miter;stroke-width:0.8;"/>
   </g>
   <g id="patch_4">
    <path d="M 972 630 
L 972 86.4 
" style="fill:none;stroke:#000000;stroke-linecap:square;stroke-linejoin:miter;stroke-width:0.8;"/>
   </g>
   <g id="patch_5">
    <path d="M 135 630 
L 972 630 
" style="fill:none;stroke:#000000;stroke-linecap:square;stroke-linejoin:miter;stroke-width:0.8;"/>
   </g>
   <g id="patch_6">
    <path d="M 135 86.4 
L 972 86.4 
" style="fill:none;stroke:#000000;stroke-linecap:square;stroke-linejoin:miter;stroke-width:0.8;"/>
   </g>
   <g id="text_21">
    <!-- Energy histogram -->
    <g transform="translate(500.170313 80.4)scale(0.12 -0.12)">
     <defs>
      <path d="M 54.890625 33.015625 
L 54.890625 0 
L 45.90625 0 
L 45.90625 32.71875 
Q 45.90625 40.484375 42.875 44.328125 
Q 39.84375 48.1875 33.796875 48.1875 
Q 26.515625 48.1875 22.3125 43.546875 
Q 18.109375 38.921875 18.109375 30.90625 
L 18.109375 0 
L 9.078125 0 
L 9.078125 75.984375 
L 18.109375 75.984375 
L 18.109375 46.1875 
Q 21.34375 51.125 25.703125 53.5625 
Q 30.078125 56 35.796875 56 
Q 45.21875 56 50.046875 50.171875 
Q 54.890625 44.34375 54.890625 33.015625 
z
" id="DejaVuSans-104"/>
      <path d="M 9.421875 54.6875 
L 18.40625 54.6875 
L 18.40625 0 
L 9.421875 0 
z
M 9.421875 75.984375 
L 18.40625 75.984375 
L 18.40625 64.59375 
L 9.421875 64.59375 
z
" id="DejaVuSans-105"/>
      <path d="M 44.28125 53.078125 
L 44.28125 44.578125 
Q 40.484375 46.53125 36.375 47.5 
Q 32.28125 48.484375 27.875 48.484375 
Q 21.1875 48.484375 17.84375 46.4375 
Q 14.5 44.390625 14.5 40.28125 
Q 14.5 37.15625 16.890625 35.375 
Q 19.28125 33.59375 26.515625 31.984375 
L 29.59375 31.296875 
Q 39.15625 29.25 43.1875 25.515625 
Q 47.21875 21.78125 47.21875 15.09375 
Q 47.21875 7.46875 41.1875 3.015625 
Q 35.15625 -1.421875 24.609375 -1.421875 
Q 20.21875 -1.421875 15.453125 -0.5625 
Q 10.6875 0.296875 5.421875 2 
L 5.421875 11.28125 
Q 10.40625 8.6875 15.234375 7.390625 
Q 20.0625 6.109375 24.8125 6.109375 
Q 31.15625 6.109375 34.5625 8.28125 
Q 37.984375 10.453125 37.984375 14.40625 
Q 37.984375 18.0625 35.515625 20.015625 
Q 33.0625 21.96875 24.703125 23.78125 
L 21.578125 24.515625 
Q 13.234375 26.265625 9.515625 29.90625 
Q 5.8125 33.546875 5.8125 39.890625 
Q 5.8125 47.609375 11.28125 51.796875 
Q 16.75 56 26.8125 56 
Q 31.78125 56 36.171875 55.265625 
Q 40.578125 54.546875 44.28125 53.078125 
z
" id="DejaVuSans-115"/>
      <path d="M 34.28125 27.484375 
Q 23.390625 27.484375 19.1875 25 
Q 14.984375 22.515625 14.984375 16.5 
Q 14.984375 11.71875 18.140625 8.90625 
Q 21.296875 6.109375 26.703125 6.109375 
Q 34.1875 6.109375 38.703125 11.40625 
Q 43.21875 16.703125 43.21875 25.484375 
L 43.21875 27.484375 
z
M 52.203125 31.203125 
L 52.203125 0 
L 43.21875 0 
L 43.21875 8.296875 
Q 40.140625 3.328125 35.546875 0.953125 
Q 30.953125 -1.421875 24.3125 -1.421875 
Q 15.921875 -1.421875 10.953125 3.296875 
Q 6 8.015625 6 15.921875 
Q 6 25.140625 12.171875 29.828125 
Q 18.359375 34.515625 30.609375 34.515625 
L 43.21875 34.515625 
L 43.21875 35.40625 
Q 43.21875 41.609375 39.140625 45 
Q 35.0625 48.390625 27.6875 48.390625 
Q 23 48.390625 18.546875 47.265625 
Q 14.109375 46.140625 10.015625 43.890625 
L 10.015625 52.203125 
Q 14.9375 54.109375 19.578125 55.046875 
Q 24.21875 56 28.609375 56 
Q 40.484375 56 46.34375 49.84375 
Q 52.203125 43.703125 52.203125 31.203125 
z
" id="DejaVuSans-97"/>
      <path d="M 52 44.1875 
Q 55.375 50.25 60.0625 53.125 
Q 64.75 56 71.09375 56 
Q 79.640625 56 84.28125 50.015625 
Q 88.921875 44.046875 88.921875 33.015625 
L 88.921875 0 
L 79.890625 0 
L 79.890625 32.71875 
Q 79.890625 40.578125 77.09375 44.375 
Q 74.3125 48.1875 68.609375 48.1875 
Q 61.625 48.1875 57.5625 43.546875 
Q 53.515625 38.921875 53.515625 30.90625 
L 53.515625 0 
L 44.484375 0 
L 44.484375 32.71875 
Q 44.484375 40.625 41.703125 44.40625 
Q 38.921875 48.1875 33.109375 48.1875 
Q 26.21875 48.1875 22.15625 43.53125 
Q 18.109375 38.875 18.109375 30.90625 
L 18.109375 0 
L 9.078125 0 
L 9.078125 54.6875 
L 18.109375 54.6875 
L 18.109375 46.1875 
Q 21.1875 51.21875 25.484375 53.609375 
Q 29.78125 56 35.6875 56 
Q 41.65625 56 45.828125 52.96875 
Q 50 49.953125 52 44.1875 
z
" id="DejaVuSans-109"/>
     </defs>
     <use xlink:href="#DejaVuSans-69"/>
     <use x="63.183594" xlink:href="#DejaVuSans-110"/>
     <use x="126.5625" xlink:href="#DejaVuSans-101"/>
     <use x="188.085938" xlink:href="#DejaVuSans-114"/>
     <use x="227.449219" xlink:href="#DejaVuSans-103"/>
     <use x="290.925781" xlink:href="#DejaVuSans-121"/>
     <use x="350.105469" xlink:href="#DejaVuSans-32"/>
     <use x="381.892578" xlink:href="#DejaVuSans-104"/>
     <use x="445.271484" xlink:href="#DejaVuSans-105"/>
     <use x="473.054688" xlink:href="#DejaVuSans-115"/>
     <use x="525.154297" xlink:href="#DejaVuSans-116"/>
     <use x="564.363281" xlink:href="#DejaVuSans-111"/>
     <use x="625.544922" xlink:href="#DejaVuSans-103"/>
     <use x="689.021484" xlink:href="#DejaVuSans-114"/>
     <use x="730.134766" xlink:href="#DejaVuSans-97"/>
     <use x="791.414062" xlink:href="#DejaVuSans-109"/>
    </g>
   </g>
   <g id="legend_1">
    <g id="patch_7">
     <path d="M 145.5 252.520313 
L 280.028906 252.520313 
Q 283.028906 252.520313 283.028906 249.520313 
L 283.028906 96.9 
Q 283.028906 93.9 280.028906 93.9 
L 145.5 93.9 
Q 142.5 93.9 142.5 96.9 
L 142.5 249.520313 
Q 142.5 252.520313 145.5 252.520313 
z
" style="fill:#ffffff;opacity:0.8;stroke:#cccccc;stroke-linejoin:miter;"/>
    </g>
    <g id="line2d_26">
     <path d="M 148.5 106.047656 
L 178.5 106.047656 
" style="fill:none;stroke:#1f77b4;stroke-linecap:square;stroke-width:1.5;"/>
    </g>
    <g id="line2d_27"/>
    <g id="text_22">
     <!-- Proton577 -->
     <g transform="translate(190.5 111.297656)scale(0.15 -0.15)">
      <defs>
       <path d="M 19.671875 64.796875 
L 19.671875 37.40625 
L 32.078125 37.40625 
Q 38.96875 37.40625 42.71875 40.96875 
Q 46.484375 44.53125 46.484375 51.125 
Q 46.484375 57.671875 42.71875 61.234375 
Q 38.96875 64.796875 32.078125 64.796875 
z
M 9.8125 72.90625 
L 32.078125 72.90625 
Q 44.34375 72.90625 50.609375 67.359375 
Q 56.890625 61.8125 56.890625 51.125 
Q 56.890625 40.328125 50.609375 34.8125 
Q 44.34375 29.296875 32.078125 29.296875 
L 19.671875 29.296875 
L 19.671875 0 
L 9.8125 0 
z
" id="DejaVuSans-80"/>
      </defs>
      <use xlink:href="#DejaVuSans-80"/>
      <use x="58.552734" xlink:href="#DejaVuSans-114"/>
      <use x="97.416016" xlink:href="#DejaVuSans-111"/>
      <use x="158.597656" xlink:href="#DejaVuSans-116"/>
      <use x="197.806641" xlink:href="#DejaVuSans-111"/>
      <use x="258.988281" xlink:href="#DejaVuSans-110"/>
      <use x="322.367188" xlink:href="#DejaVuSans-53"/>
      <use x="385.990234" xlink:href="#DejaVuSans-55"/>
      <use x="449.613281" xlink:href="#DejaVuSans-55"/>
     </g>
    </g>
    <g id="line2d_28">
     <path d="M 148.5 128.064844 
L 178.5 128.064844 
" style="fill:none;stroke:#ff7f0e;stroke-linecap:square;stroke-width:1.5;"/>
    </g>
    <g id="line2d_29"/>
    <g id="text_23">
     <!-- Proton1815 -->
     <g transform="translate(190.5 133.314844)scale(0.15 -0.15)">
      <defs>
       <path d="M 31.78125 34.625 
Q 24.75 34.625 20.71875 30.859375 
Q 16.703125 27.09375 16.703125 20.515625 
Q 16.703125 13.921875 20.71875 10.15625 
Q 24.75 6.390625 31.78125 6.390625 
Q 38.8125 6.390625 42.859375 10.171875 
Q 46.921875 13.96875 46.921875 20.515625 
Q 46.921875 27.09375 42.890625 30.859375 
Q 38.875 34.625 31.78125 34.625 
z
M 21.921875 38.8125 
Q 15.578125 40.375 12.03125 44.71875 
Q 8.5 49.078125 8.5 55.328125 
Q 8.5 64.0625 14.71875 69.140625 
Q 20.953125 74.21875 31.78125 74.21875 
Q 42.671875 74.21875 48.875 69.140625 
Q 55.078125 64.0625 55.078125 55.328125 
Q 55.078125 49.078125 51.53125 44.71875 
Q 48 40.375 41.703125 38.8125 
Q 48.828125 37.15625 52.796875 32.3125 
Q 56.78125 27.484375 56.78125 20.515625 
Q 56.78125 9.90625 50.3125 4.234375 
Q 43.84375 -1.421875 31.78125 -1.421875 
Q 19.734375 -1.421875 13.25 4.234375 
Q 6.78125 9.90625 6.78125 20.515625 
Q 6.78125 27.484375 10.78125 32.3125 
Q 14.796875 37.15625 21.921875 38.8125 
z
M 18.3125 54.390625 
Q 18.3125 48.734375 21.84375 45.5625 
Q 25.390625 42.390625 31.78125 42.390625 
Q 38.140625 42.390625 41.71875 45.5625 
Q 45.3125 48.734375 45.3125 54.390625 
Q 45.3125 60.0625 41.71875 63.234375 
Q 38.140625 66.40625 31.78125 66.40625 
Q 25.390625 66.40625 21.84375 63.234375 
Q 18.3125 60.0625 18.3125 54.390625 
z
" id="DejaVuSans-56"/>
      </defs>
      <use xlink:href="#DejaVuSans-80"/>
      <use x="58.552734" xlink:href="#DejaVuSans-114"/>
      <use x="97.416016" xlink:href="#DejaVuSans-111"/>
      <use x="158.597656" xlink:href="#DejaVuSans-116"/>
      <use x="197.806641" xlink:href="#DejaVuSans-111"/>
      <use x="258.988281" xlink:href="#DejaVuSans-110"/>
      <use x="322.367188" xlink:href="#DejaVuSans-49"/>
      <use x="385.990234" xlink:href="#DejaVuSans-56"/>
      <use x="449.613281" xlink:href="#DejaVuSans-49"/>
      <use x="513.236328" xlink:href="#DejaVuSans-53"/>
     </g>
    </g>
    <g id="line2d_30">
     <path d="M 148.5 150.082031 
L 178.5 150.082031 
" style="fill:none;stroke:#2ca02c;stroke-linecap:square;stroke-width:1.5;"/>
    </g>
    <g id="line2d_31"/>
    <g id="text_24">
     <!-- 1400 -->
     <g transform="translate(190.5 155.332031)scale(0.15 -0.15)">
      <defs>
       <path d="M 41.3125 25.4375 
L 39.15625 36.71875 
Q 36.96875 48.296875 28.265625 48.296875 
Q 21.734375 48.296875 18.75 42.921875 
Q 14.984375 36.1875 14.984375 27.296875 
Q 14.984375 16.546875 18.65625 11.421875 
Q 22.359375 6.203125 28.265625 6.203125 
Q 34.8125 6.203125 38.328125 16.609375 
z
M 46.34375 40.375 
L 51.171875 54.6875 
L 59.1875 54.6875 
L 49.171875 25.046875 
L 51.125 14.359375 
Q 51.5625 11.96875 53.265625 9.96875 
Q 55.28125 7.625 56.84375 7.625 
L 61.140625 7.625 
L 61.140625 0 
L 55.765625 0 
Q 51.171875 0 47.078125 4.109375 
Q 45.0625 6.15625 44.234375 10.453125 
Q 42 5.03125 37.40625 0.78125 
Q 35.25 -1.21875 28.265625 -1.21875 
Q 16.796875 -1.21875 11.234375 6.203125 
Q 5.515625 13.875 5.515625 27.296875 
Q 5.515625 41.65625 11.71875 48.390625 
Q 18.609375 55.90625 28.265625 55.90625 
Q 43.453125 55.90625 46.34375 40.375 
z
" id="DejaVuSans-945"/>
      </defs>
      <use xlink:href="#DejaVuSans-945"/>
      <use x="65.917969" xlink:href="#DejaVuSans-49"/>
      <use x="129.541016" xlink:href="#DejaVuSans-52"/>
      <use x="193.164062" xlink:href="#DejaVuSans-48"/>
      <use x="256.787109" xlink:href="#DejaVuSans-48"/>
     </g>
    </g>
    <g id="line2d_32">
     <path d="M 148.5 172.099219 
L 178.5 172.099219 
" style="fill:none;stroke:#d62728;stroke-linecap:square;stroke-width:1.5;"/>
    </g>
    <g id="line2d_33"/>
    <g id="text_25">
     <!-- 1464 -->
     <g transform="translate(190.5 177.349219)scale(0.15 -0.15)">
      <defs>
       <path d="M 33.015625 40.375 
Q 26.375 40.375 22.484375 35.828125 
Q 18.609375 31.296875 18.609375 23.390625 
Q 18.609375 15.53125 22.484375 10.953125 
Q 26.375 6.390625 33.015625 6.390625 
Q 39.65625 6.390625 43.53125 10.953125 
Q 47.40625 15.53125 47.40625 23.390625 
Q 47.40625 31.296875 43.53125 35.828125 
Q 39.65625 40.375 33.015625 40.375 
z
M 52.59375 71.296875 
L 52.59375 62.3125 
Q 48.875 64.0625 45.09375 64.984375 
Q 41.3125 65.921875 37.59375 65.921875 
Q 27.828125 65.921875 22.671875 59.328125 
Q 17.53125 52.734375 16.796875 39.40625 
Q 19.671875 43.65625 24.015625 45.921875 
Q 28.375 48.1875 33.59375 48.1875 
Q 44.578125 48.1875 50.953125 41.515625 
Q 57.328125 34.859375 57.328125 23.390625 
Q 57.328125 12.15625 50.6875 5.359375 
Q 44.046875 -1.421875 33.015625 -1.421875 
Q 20.359375 -1.421875 13.671875 8.265625 
Q 6.984375 17.96875 6.984375 36.375 
Q 6.984375 53.65625 15.1875 63.9375 
Q 23.390625 74.21875 37.203125 74.21875 
Q 40.921875 74.21875 44.703125 73.484375 
Q 48.484375 72.75 52.59375 71.296875 
z
" id="DejaVuSans-54"/>
      </defs>
      <use xlink:href="#DejaVuSans-945"/>
      <use x="65.917969" xlink:href="#DejaVuSans-49"/>
      <use x="129.541016" xlink:href="#DejaVuSans-52"/>
      <use x="193.164062" xlink:href="#DejaVuSans-54"/>
      <use x="256.787109" xlink:href="#DejaVuSans-52"/>
     </g>
    </g>
    <g id="line2d_34">
     <path d="M 148.5 194.116406 
L 178.5 194.116406 
" style="fill:none;stroke:#9467bd;stroke-linecap:square;stroke-width:1.5;"/>
    </g>
    <g id="line2d_35"/>
    <g id="text_26">
     <!-- 2050 -->
     <g transform="translate(190.5 199.366406)scale(0.15 -0.15)">
      <use xlink:href="#DejaVuSans-945"/>
      <use x="65.917969" xlink:href="#DejaVuSans-50"/>
      <use x="129.541016" xlink:href="#DejaVuSans-48"/>
      <use x="193.164062" xlink:href="#DejaVuSans-53"/>
      <use x="256.787109" xlink:href="#DejaVuSans-48"/>
     </g>
    </g>
    <g id="line2d_36">
     <path d="M 148.5 216.133594 
L 178.5 216.133594 
" style="fill:none;stroke:#8c564b;stroke-linecap:square;stroke-width:1.5;"/>
    </g>
    <g id="line2d_37"/>
    <g id="text_27">
     <!-- 4750 -->
     <g transform="translate(190.5 221.383594)scale(0.15 -0.15)">
      <use xlink:href="#DejaVuSans-945"/>
      <use x="65.917969" xlink:href="#DejaVuSans-52"/>
      <use x="129.541016" xlink:href="#DejaVuSans-55"/>
      <use x="193.164062" xlink:href="#DejaVuSans-53"/>
      <use x="256.787109" xlink:href="#DejaVuSans-48"/>
     </g>
    </g>
    <g id="line2d_38">
     <path d="M 148.5 238.150781 
L 178.5 238.150781 
" style="fill:none;stroke:#e377c2;stroke-linecap:square;stroke-width:1.5;"/>
    </g>
    <g id="line2d_39"/>
    <g id="text_28">
     <!-- Triton2730 -->
     <g transform="translate(190.5 243.400781)scale(0.15 -0.15)">
      <defs>
       <path d="M -0.296875 72.90625 
L 61.375 72.90625 
L 61.375 64.59375 
L 35.5 64.59375 
L 35.5 0 
L 25.59375 0 
L 25.59375 64.59375 
L -0.296875 64.59375 
z
" id="DejaVuSans-84"/>
      </defs>
      <use xlink:href="#DejaVuSans-84"/>
      <use x="46.333984" xlink:href="#DejaVuSans-114"/>
      <use x="87.447266" xlink:href="#DejaVuSans-105"/>
      <use x="115.230469" xlink:href="#DejaVuSans-116"/>
      <use x="154.439453" xlink:href="#DejaVuSans-111"/>
      <use x="215.621094" xlink:href="#DejaVuSans-110"/>
      <use x="279" xlink:href="#DejaVuSans-50"/>
      <use x="342.623047" xlink:href="#DejaVuSans-55"/>
      <use x="406.246094" xlink:href="#DejaVuSans-51"/>
      <use x="469.869141" xlink:href="#DejaVuSans-48"/>
     </g>
    </g>
   </g>
  </g>
 </g>
 <defs>
  <clipPath id="p9c0183315e">
   <rect height="543.6" width="837" x="135" y="86.4"/>
  </clipPath>
 </defs>
</svg>
